<svg xmlns="http://www.w3.org/2000/svg" xmlns:xlink="http://www.w3.org/1999/xlink" width="500" zoomAndPan="magnify" viewBox="0 0 375 374.999991" height="500" preserveAspectRatio="xMidYMid meet" version="1.0"><defs><clipPath id="bb61cd791b"><path d="M 2.164062 2.914062 L 372.664062 2.914062 L 372.664062 373.414062 L 2.164062 373.414062 Z M 2.164062 2.914062 " clip-rule="nonzero"/></clipPath></defs><g clip-path="url(#bb61cd791b)"><path fill="#e11e2c" d="M 187.496094 2.914062 C 85.5625 2.914062 2.164062 86.3125 2.164062 188.246094 C 2.164062 290.179688 85.5625 373.578125 187.496094 373.578125 C 289.429688 373.578125 372.828125 290.179688 372.828125 188.246094 C 372.828125 86.3125 289.429688 2.914062 187.496094 2.914062 Z M 261.628906 206.777344 L 206.027344 206.777344 L 206.027344 262.378906 C 206.027344 273.5 198.617188 280.910156 187.496094 280.910156 C 176.375 280.910156 168.960938 273.5 168.960938 262.378906 L 168.960938 206.777344 L 113.363281 206.777344 C 102.242188 206.777344 94.828125 199.367188 94.828125 188.246094 C 94.828125 177.125 102.242188 169.710938 113.363281 169.710938 L 168.960938 169.710938 L 168.960938 114.113281 C 168.960938 102.992188 176.375 95.578125 187.496094 95.578125 C 198.617188 95.578125 206.027344 102.992188 206.027344 114.113281 L 206.027344 169.710938 L 261.628906 169.710938 C 272.75 169.710938 280.160156 177.125 280.160156 188.246094 C 280.160156 199.367188 272.75 206.777344 261.628906 206.777344 Z M 261.628906 206.777344 " fill-opacity="1" fill-rule="nonzero"/></g></svg>