<svg xmlns="http://www.w3.org/2000/svg" xmlns:xlink="http://www.w3.org/1999/xlink" width="500" zoomAndPan="magnify" viewBox="0 0 375 374.999991" height="500" preserveAspectRatio="xMidYMid meet" version="1.0"><defs><clipPath id="2f8e74287c"><path d="M 3.285156 30.140625 L 371.535156 30.140625 L 371.535156 354.414062 L 3.285156 354.414062 Z M 3.285156 30.140625 " clip-rule="nonzero"/></clipPath></defs><rect x="-37.5" width="450" fill="#ffffff" y="-37.499999" height="449.999989" fill-opacity="1"/><g clip-path="url(#2f8e74287c)"><path fill="#000000" d="M 345.613281 326.09375 C 345.613281 327.363281 344.582031 328.40625 343.3125 328.40625 L 31.617188 328.40625 C 30.335938 328.40625 29.304688 327.363281 29.304688 326.09375 L 29.304688 148.347656 L 345.613281 148.347656 Z M 343.3125 53.257812 L 291.835938 53.257812 L 291.835938 43.144531 C 291.835938 35.960938 286.011719 30.140625 278.824219 30.140625 C 271.636719 30.140625 265.816406 35.960938 265.816406 43.144531 L 265.816406 53.257812 L 123.855469 53.257812 L 123.855469 79.273438 L 265.816406 79.273438 L 265.816406 89.386719 C 265.816406 96.570312 271.636719 102.390625 278.824219 102.390625 C 286.011719 102.390625 291.835938 96.570312 291.835938 89.386719 L 291.835938 79.273438 L 343.3125 79.273438 C 344.582031 79.273438 345.613281 80.304688 345.613281 81.585938 L 345.613281 122.339844 L 29.304688 122.339844 L 29.304688 81.585938 C 29.304688 80.304688 30.335938 79.273438 31.617188 79.273438 L 83.082031 79.273438 L 83.082031 89.386719 C 83.082031 96.570312 88.90625 102.390625 96.09375 102.390625 C 98.203125 102.390625 100.195312 101.878906 101.960938 100.992188 C 102.070312 100.933594 102.1875 100.882812 102.292969 100.824219 C 102.425781 100.753906 102.554688 100.671875 102.6875 100.589844 C 102.910156 100.457031 103.148438 100.328125 103.375 100.171875 C 103.46875 100.101562 103.5625 100.019531 103.671875 99.949219 C 103.90625 99.78125 104.144531 99.617188 104.371094 99.425781 C 107.261719 97.03125 109.101562 93.429688 109.101562 89.386719 L 109.101562 43.144531 C 109.101562 39.554688 107.65625 36.304688 105.292969 33.945312 C 104.640625 33.292969 103.917969 32.726562 103.148438 32.226562 C 101.109375 30.910156 98.6875 30.140625 96.09375 30.140625 C 88.90625 30.140625 83.082031 35.960938 83.082031 43.144531 L 83.082031 53.257812 L 31.617188 53.257812 C 15.996094 53.257812 3.285156 65.976562 3.285156 81.585938 L 3.285156 326.09375 C 3.285156 341.707031 15.996094 354.414062 31.617188 354.414062 L 343.3125 354.414062 C 358.929688 354.414062 371.644531 341.707031 371.644531 326.09375 L 371.644531 81.585938 C 371.644531 65.976562 358.929688 53.257812 343.3125 53.257812 " fill-opacity="1" fill-rule="nonzero"/></g><path fill="#000000" d="M 173.101562 262.097656 C 174.597656 263.589844 176.601562 264.421875 178.738281 264.421875 C 180.847656 264.421875 182.839844 263.601562 184.34375 262.121094 L 220.0625 226.652344 C 221.570312 225.148438 222.402344 223.15625 222.414062 221.035156 C 222.425781 218.902344 221.59375 216.898438 220.101562 215.390625 L 219.386719 214.679688 C 217.894531 213.175781 215.902344 212.335938 213.765625 212.335938 C 211.632812 212.335938 209.640625 213.152344 208.132812 214.644531 L 178.761719 243.804688 L 166.816406 231.871094 C 165.3125 230.363281 163.308594 229.535156 161.183594 229.535156 C 159.0625 229.535156 157.070312 230.363281 155.550781 231.882812 L 154.839844 232.582031 C 153.335938 234.085938 152.503906 236.089844 152.503906 238.222656 C 152.503906 240.34375 153.335938 242.335938 154.839844 243.855469 L 173.101562 262.097656 " fill-opacity="1" fill-rule="nonzero"/><path fill="#000000" d="M 187.464844 186.550781 C 216.042969 186.550781 239.300781 209.808594 239.300781 238.378906 C 239.300781 266.945312 216.042969 290.191406 187.464844 290.191406 C 158.871094 290.191406 135.617188 266.945312 135.617188 238.378906 C 135.617188 209.808594 158.871094 186.550781 187.464844 186.550781 Z M 187.464844 306.867188 C 225.246094 306.867188 255.984375 276.144531 255.984375 238.378906 C 255.984375 200.597656 225.246094 169.886719 187.464844 169.886719 C 149.671875 169.886719 118.933594 200.597656 118.933594 238.378906 C 118.933594 276.144531 149.671875 306.867188 187.464844 306.867188 " fill-opacity="1" fill-rule="nonzero"/></svg>