<svg xmlns="http://www.w3.org/2000/svg" xmlns:xlink="http://www.w3.org/1999/xlink" width="500" zoomAndPan="magnify" viewBox="0 0 375 374.999991" height="500" preserveAspectRatio="xMidYMid meet" version="1.0"><defs><clipPath id="b88dc77396"><path d="M 29.234375 9 L 356 9 L 356 331 L 29.234375 331 Z M 29.234375 9 " clip-rule="nonzero"/></clipPath></defs><g clip-path="url(#b88dc77396)"><path fill="#000000" d="M 124.507812 9.039062 C 116.652344 9.039062 110.332031 15.359375 110.332031 23.183594 L 110.332031 71.417969 C 110.332031 79.269531 116.644531 85.589844 124.507812 85.589844 C 132.339844 85.589844 138.664062 79.269531 138.664062 71.417969 L 138.664062 54.972656 C 145.179688 59.5625 149.050781 66.996094 149.050781 74.960938 C 149.050781 88.496094 138.058594 99.476562 124.507812 99.476562 C 110.933594 99.476562 99.941406 88.496094 99.941406 74.960938 L 99.941406 34.441406 L 82.570312 34.441406 C 72.898438 34.441406 63.695312 36.882812 56.488281 42.597656 C 49.292969 48.332031 44.726562 57.230469 43.742188 67.386719 L 29.585938 290.648438 C 28.925781 300.917969 31.230469 310.800781 37.335938 318.292969 C 43.4375 325.792969 53.082031 330.484375 63.765625 330.484375 L 237.839844 330.484375 C 237.730469 329.304688 237.671875 328.121094 237.671875 326.96875 L 237.671875 309.257812 L 66.1875 309.257812 C 60.96875 309.257812 57.78125 307.445312 55.386719 304.507812 C 52.996094 301.597656 51.730469 297.175781 52.03125 291.554688 L 61.046875 117.378906 L 325.910156 117.378906 L 332.644531 247.371094 L 355.589844 262.507812 L 343.195312 67.386719 C 342.230469 57.230469 337.671875 48.332031 330.46875 42.597656 C 323.246094 36.882812 314.042969 34.441406 304.367188 34.441406 L 276.605469 34.441406 L 276.605469 23.183594 C 276.605469 15.359375 270.292969 9.039062 262.460938 9.039062 C 254.59375 9.039062 248.277344 15.359375 248.277344 23.183594 L 248.277344 71.417969 C 248.277344 79.269531 254.59375 85.589844 262.460938 85.589844 C 270.292969 85.589844 276.605469 79.269531 276.605469 71.417969 L 276.605469 54.972656 C 283.125 59.5625 286.996094 66.996094 286.996094 74.960938 C 286.996094 88.496094 276 99.476562 262.457031 99.476562 C 248.90625 99.476562 237.910156 88.496094 237.910156 74.960938 L 237.910156 34.441406 L 138.664062 34.441406 L 138.664062 23.183594 C 138.664062 15.355469 132.339844 9.039062 124.507812 9.039062 Z M 124.507812 9.039062 " fill-opacity="1" fill-rule="evenodd"/></g><path fill="#000000" d="M 98.183594 153.476562 L 133.414062 153.476562 C 138.582031 153.476562 142.726562 157.625 142.726562 162.78125 L 142.726562 190.238281 C 142.726562 195.398438 138.574219 199.542969 133.414062 199.542969 L 98.183594 199.542969 C 93.019531 199.542969 88.871094 195.394531 88.871094 190.238281 L 88.871094 162.78125 C 88.871094 157.625 93.019531 153.476562 98.183594 153.476562 Z M 98.183594 153.476562 " fill-opacity="1" fill-rule="evenodd"/><path fill="#000000" d="M 175.875 153.476562 L 211.105469 153.476562 C 216.269531 153.476562 220.417969 157.625 220.417969 162.78125 L 220.417969 190.238281 C 220.417969 195.398438 216.265625 199.542969 211.105469 199.542969 L 175.875 199.542969 C 170.707031 199.542969 166.5625 195.394531 166.5625 190.238281 L 166.5625 162.78125 C 166.5625 157.625 170.707031 153.476562 175.875 153.476562 Z M 175.875 153.476562 " fill-opacity="1" fill-rule="evenodd"/><path fill="#000000" d="M 253.566406 153.476562 L 288.796875 153.476562 C 293.960938 153.476562 298.109375 157.625 298.109375 162.78125 L 298.109375 190.238281 C 298.109375 195.398438 293.957031 199.542969 288.796875 199.542969 L 253.566406 199.542969 C 248.398438 199.542969 244.25 195.394531 244.25 190.238281 L 244.25 162.78125 C 244.246094 157.625 248.398438 153.476562 253.566406 153.476562 Z M 253.566406 153.476562 " fill-opacity="1" fill-rule="evenodd"/><path fill="#000000" d="M 98.183594 227.082031 L 133.414062 227.082031 C 138.582031 227.082031 142.726562 231.253906 142.726562 236.417969 L 142.726562 263.84375 C 142.726562 269.011719 138.574219 273.179688 133.414062 273.179688 L 98.183594 273.179688 C 93.019531 273.179688 88.871094 269.011719 88.871094 263.84375 L 88.871094 236.417969 C 88.871094 231.253906 93.019531 227.082031 98.183594 227.082031 Z M 98.183594 227.082031 " fill-opacity="1" fill-rule="evenodd"/><path fill="#000000" d="M 175.875 227.082031 L 211.105469 227.082031 C 216.269531 227.082031 220.417969 231.253906 220.417969 236.417969 L 220.417969 263.84375 C 220.417969 269.011719 216.265625 273.179688 211.105469 273.179688 L 175.875 273.179688 C 170.707031 273.179688 166.5625 269.011719 166.5625 263.84375 L 166.5625 236.417969 C 166.5625 231.253906 170.707031 227.082031 175.875 227.082031 Z M 175.875 227.082031 " fill-opacity="1" fill-rule="evenodd"/><path fill="#000000" d="M 254.277344 243.636719 L 254.199219 326.9375 C 254.199219 339.480469 263.484375 345.71875 271.039062 340.171875 L 292.066406 324.632812 L 308.777344 356.390625 C 312.097656 362.710938 319.136719 365.453125 324.582031 362.484375 L 336.921875 355.785156 C 342.332031 352.816406 344.035156 345.386719 340.714844 339.066406 L 324.035156 307.273438 L 351.492188 297.722656 C 358.222656 295.382812 357.398438 284.074219 347.011719 276.582031 L 278.085938 231.140625 C 267.054688 223.898438 254.304688 228.945312 254.277344 243.636719 Z M 254.277344 243.636719 " fill-opacity="1" fill-rule="nonzero"/></svg>