<svg xmlns="http://www.w3.org/2000/svg" xmlns:xlink="http://www.w3.org/1999/xlink" width="500" zoomAndPan="magnify" viewBox="0 0 375 374.999991" height="500" preserveAspectRatio="xMidYMid meet" version="1.0"><defs><clipPath id="3021a30985"><path d="M 31.125 211 L 343.855469 211 L 343.855469 374.914062 L 31.125 374.914062 Z M 31.125 211 " clip-rule="nonzero"/></clipPath></defs><path fill="#e11e2c" d="M 187.4375 195.816406 C 239.4375 195.816406 281.738281 153.496094 281.738281 101.484375 C 281.738281 49.484375 239.4375 7.183594 187.4375 7.183594 C 135.4375 7.183594 93.136719 49.484375 93.136719 101.484375 C 93.136719 153.496094 135.4375 195.816406 187.4375 195.816406 Z M 187.4375 13.011719 C 236.21875 13.011719 275.910156 52.699219 275.910156 101.484375 C 275.910156 150.285156 236.222656 189.984375 187.4375 189.984375 C 138.65625 189.984375 98.964844 150.285156 98.964844 101.484375 C 98.964844 52.699219 138.65625 13.011719 187.4375 13.011719 Z M 187.4375 13.011719 " fill-opacity="1" fill-rule="nonzero"/><path fill="#e11e2c" d="M 157.644531 34.640625 C 158.03125 34.640625 158.425781 34.566406 158.796875 34.402344 C 165.648438 31.460938 172.960938 29.605469 180.542969 28.886719 C 182.148438 28.734375 183.320312 27.3125 183.167969 25.707031 C 183.015625 24.105469 181.621094 22.925781 179.988281 23.082031 C 171.804688 23.855469 163.898438 25.863281 156.496094 29.046875 C 155.015625 29.679688 154.332031 31.394531 154.96875 32.875 C 155.441406 33.980469 156.519531 34.640625 157.644531 34.640625 Z M 157.644531 34.640625 " fill-opacity="1" fill-rule="nonzero"/><path fill="#e11e2c" d="M 134.851562 49.773438 C 135.582031 49.773438 136.3125 49.496094 136.878906 48.949219 C 140.644531 45.296875 144.855469 42.035156 149.398438 39.257812 C 150.777344 38.417969 151.207031 36.625 150.367188 35.25 C 149.527344 33.871094 147.738281 33.441406 146.359375 34.28125 C 141.445312 37.285156 136.890625 40.8125 132.820312 44.761719 C 131.664062 45.882812 131.636719 47.726562 132.757812 48.882812 C 133.328125 49.472656 134.089844 49.773438 134.851562 49.773438 Z M 134.851562 49.773438 " fill-opacity="1" fill-rule="nonzero"/><path fill="#e11e2c" d="M 118.160156 70.398438 C 118.574219 70.605469 119.019531 70.703125 119.453125 70.703125 C 120.527344 70.703125 121.558594 70.109375 122.066406 69.082031 C 124.25 64.695312 126.957031 60.429688 130.113281 56.410156 C 131.109375 55.144531 130.890625 53.308594 129.625 52.316406 C 128.351562 51.324219 126.523438 51.542969 125.53125 52.808594 C 122.128906 57.140625 119.207031 61.742188 116.847656 66.488281 C 116.128906 67.929688 116.71875 69.679688 118.160156 70.398438 Z M 118.160156 70.398438 " fill-opacity="1" fill-rule="nonzero"/><path fill="#e11e2c" d="M 111.585938 98.328125 C 111.664062 98.332031 111.746094 98.335938 111.820312 98.335938 C 113.324219 98.335938 114.601562 97.183594 114.726562 95.65625 C 115.195312 89.773438 116.367188 84.003906 118.199219 78.503906 C 118.707031 76.976562 117.882812 75.324219 116.355469 74.816406 C 114.8125 74.300781 113.175781 75.132812 112.664062 76.660156 C 110.683594 82.605469 109.421875 88.839844 108.910156 95.183594 C 108.785156 96.792969 109.980469 98.195312 111.585938 98.328125 Z M 111.585938 98.328125 " fill-opacity="1" fill-rule="nonzero"/><path fill="#e11e2c" d="M 180.542969 174.109375 C 173.050781 173.398438 165.730469 171.542969 158.789062 168.589844 C 157.308594 167.953125 155.59375 168.648438 154.964844 170.128906 C 154.332031 171.609375 155.027344 173.324219 156.503906 173.953125 C 163.996094 177.140625 171.898438 179.148438 179.988281 179.914062 C 180.082031 179.921875 180.175781 179.925781 180.269531 179.925781 C 181.757812 179.925781 183.023438 178.792969 183.167969 177.285156 C 183.320312 175.683594 182.144531 174.261719 180.542969 174.109375 Z M 180.542969 174.109375 " fill-opacity="1" fill-rule="nonzero"/><path fill="#e11e2c" d="M 146.359375 168.714844 C 146.835938 169.007812 147.359375 169.144531 147.878906 169.144531 C 148.859375 169.144531 149.820312 168.648438 150.367188 167.746094 C 151.207031 166.375 150.773438 164.578125 149.398438 163.738281 C 144.855469 160.960938 140.644531 157.699219 136.878906 154.046875 C 135.726562 152.925781 133.882812 152.953125 132.757812 154.105469 C 131.636719 155.261719 131.664062 157.105469 132.820312 158.230469 C 136.890625 162.183594 141.445312 165.710938 146.359375 168.714844 Z M 146.359375 168.714844 " fill-opacity="1" fill-rule="nonzero"/><path fill="#e11e2c" d="M 127.828125 151.304688 C 128.457031 151.304688 129.09375 151.097656 129.625 150.683594 C 130.890625 149.6875 131.113281 147.855469 130.117188 146.589844 C 126.960938 142.570312 124.25 138.308594 122.066406 133.914062 C 121.351562 132.472656 119.597656 131.886719 118.160156 132.601562 C 116.71875 133.320312 116.128906 135.070312 116.847656 136.511719 C 119.207031 141.257812 122.132812 145.859375 125.53125 150.1875 C 126.109375 150.921875 126.960938 151.304688 127.828125 151.304688 Z M 127.828125 151.304688 " fill-opacity="1" fill-rule="nonzero"/><path fill="#e11e2c" d="M 118.199219 124.460938 C 116.367188 118.996094 115.203125 113.230469 114.726562 107.339844 C 114.597656 105.738281 113.242188 104.542969 111.589844 104.671875 C 109.980469 104.800781 108.785156 106.203125 108.914062 107.808594 C 109.429688 114.171875 110.691406 120.398438 112.671875 126.3125 C 113.082031 127.53125 114.21875 128.304688 115.4375 128.304688 C 115.742188 128.304688 116.054688 128.253906 116.359375 128.152344 C 117.886719 127.640625 118.710938 125.988281 118.199219 124.460938 Z M 118.199219 124.460938 " fill-opacity="1" fill-rule="nonzero"/><path fill="#e11e2c" d="M 194.332031 28.886719 C 201.914062 29.609375 209.226562 31.460938 216.078125 34.40625 C 216.453125 34.566406 216.84375 34.644531 217.230469 34.644531 C 218.359375 34.644531 219.433594 33.984375 219.910156 32.882812 C 220.542969 31.402344 219.859375 29.6875 218.382812 29.050781 C 210.976562 25.867188 203.070312 23.863281 194.886719 23.085938 C 193.253906 22.933594 191.859375 24.113281 191.707031 25.714844 C 191.554688 27.3125 192.730469 28.738281 194.332031 28.886719 Z M 194.332031 28.886719 " fill-opacity="1" fill-rule="nonzero"/><path fill="#e11e2c" d="M 225.476562 39.257812 C 230.019531 42.035156 234.234375 45.296875 237.996094 48.949219 C 238.5625 49.496094 239.292969 49.773438 240.027344 49.773438 C 240.785156 49.773438 241.542969 49.472656 242.117188 48.886719 C 243.242188 47.730469 243.210938 45.886719 242.058594 44.761719 C 237.988281 40.8125 233.433594 37.285156 228.515625 34.285156 C 227.136719 33.445312 225.347656 33.875 224.507812 35.25 C 223.667969 36.628906 224.101562 38.417969 225.476562 39.257812 Z M 225.476562 39.257812 " fill-opacity="1" fill-rule="nonzero"/><path fill="#e11e2c" d="M 252.808594 69.082031 C 253.316406 70.109375 254.347656 70.703125 255.421875 70.703125 C 255.855469 70.703125 256.300781 70.601562 256.714844 70.398438 C 258.152344 69.679688 258.742188 67.933594 258.027344 66.488281 C 255.664062 61.742188 252.742188 57.140625 249.34375 52.8125 C 248.347656 51.546875 246.519531 51.324219 245.25 52.320312 C 243.984375 53.3125 243.761719 55.148438 244.757812 56.410156 C 247.917969 60.433594 250.625 64.695312 252.808594 69.082031 Z M 252.808594 69.082031 " fill-opacity="1" fill-rule="nonzero"/><path fill="#e11e2c" d="M 256.671875 78.503906 C 258.507812 84.003906 259.675781 89.773438 260.148438 95.65625 C 260.269531 97.183594 261.546875 98.335938 263.050781 98.335938 C 263.128906 98.335938 263.207031 98.332031 263.289062 98.328125 C 264.894531 98.199219 266.089844 96.792969 265.960938 95.1875 C 265.449219 88.84375 264.183594 82.609375 262.207031 76.664062 C 261.695312 75.136719 260.054688 74.304688 258.515625 74.816406 C 256.992188 75.320312 256.167969 76.976562 256.671875 78.503906 Z M 256.671875 78.503906 " fill-opacity="1" fill-rule="nonzero"/><path fill="#e11e2c" d="M 216.085938 168.589844 C 209.144531 171.542969 201.828125 173.398438 194.332031 174.109375 C 192.730469 174.261719 191.554688 175.683594 191.707031 177.289062 C 191.851562 178.796875 193.121094 179.929688 194.605469 179.929688 C 194.695312 179.929688 194.789062 179.925781 194.886719 179.917969 C 202.976562 179.148438 210.878906 177.144531 218.371094 173.957031 C 219.851562 173.324219 220.542969 171.613281 219.910156 170.132812 C 219.277344 168.648438 217.570312 167.953125 216.085938 168.589844 Z M 216.085938 168.589844 " fill-opacity="1" fill-rule="nonzero"/><path fill="#e11e2c" d="M 237.996094 154.046875 C 234.234375 157.703125 230.019531 160.964844 225.476562 163.742188 C 224.101562 164.582031 223.667969 166.375 224.507812 167.75 C 225.058594 168.648438 226.019531 169.144531 227 169.144531 C 227.515625 169.144531 228.039062 169.007812 228.515625 168.71875 C 233.433594 165.714844 237.984375 162.1875 242.058594 158.238281 C 243.210938 157.117188 243.242188 155.269531 242.117188 154.117188 C 240.992188 152.957031 239.152344 152.933594 237.996094 154.046875 Z M 237.996094 154.046875 " fill-opacity="1" fill-rule="nonzero"/><path fill="#e11e2c" d="M 247.046875 151.304688 C 247.914062 151.304688 248.769531 150.921875 249.34375 150.1875 C 252.742188 145.859375 255.667969 141.257812 258.027344 136.511719 C 258.742188 135.070312 258.152344 133.320312 256.714844 132.601562 C 255.273438 131.886719 253.519531 132.472656 252.804688 133.914062 C 250.621094 138.304688 247.914062 142.570312 244.757812 146.589844 C 243.757812 147.855469 243.980469 149.6875 245.246094 150.683594 C 245.785156 151.097656 246.417969 151.304688 247.046875 151.304688 Z M 247.046875 151.304688 " fill-opacity="1" fill-rule="nonzero"/><path fill="#e11e2c" d="M 263.289062 104.671875 C 261.667969 104.546875 260.277344 105.738281 260.148438 107.339844 C 259.671875 113.230469 258.507812 118.996094 256.675781 124.460938 C 256.164062 125.984375 256.988281 127.636719 258.515625 128.152344 C 258.820312 128.253906 259.132812 128.304688 259.441406 128.304688 C 260.660156 128.304688 261.796875 127.53125 262.203125 126.3125 C 264.183594 120.398438 265.449219 114.171875 265.960938 107.808594 C 266.089844 106.207031 264.894531 104.800781 263.289062 104.671875 Z M 263.289062 104.671875 " fill-opacity="1" fill-rule="nonzero"/><path fill="#e11e2c" d="M 146.328125 98.710938 L 138.226562 102.585938 C 135.53125 103.875 133.554688 106.273438 132.808594 109.171875 C 132.058594 112.066406 132.617188 115.117188 134.335938 117.542969 C 134.335938 117.542969 134.339844 117.546875 134.339844 117.546875 L 152.4375 142.960938 C 155.152344 146.796875 159.597656 149.089844 164.320312 149.089844 C 168.558594 149.089844 172.566406 147.257812 175.324219 144.058594 L 241.09375 68.09375 C 242.921875 65.976562 242.828125 63 240.871094 61.015625 C 238.902344 59.023438 235.925781 58.886719 233.765625 60.699219 L 164.910156 119.066406 L 160.273438 104.726562 C 159.367188 101.949219 157.316406 99.699219 154.640625 98.546875 C 151.976562 97.402344 148.953125 97.457031 146.328125 98.710938 Z M 146.328125 98.710938 " fill-opacity="1" fill-rule="nonzero"/><g clip-path="url(#3021a30985)"><path fill="#e11e2c" d="M 317.445312 211.089844 L 57.425781 211.089844 C 42.914062 211.089844 31.105469 222.886719 31.105469 237.382812 L 31.105469 295.042969 C 31.105469 309.542969 42.914062 321.335938 57.425781 321.335938 L 251.847656 321.335938 L 256.320312 353.398438 C 256.457031 354.386719 257.097656 355.238281 258.003906 355.652344 C 258.921875 356.066406 259.980469 355.980469 260.816406 355.425781 C 260.816406 355.425781 271.539062 348.339844 279.246094 343.269531 L 298.953125 373.171875 C 299.511719 374.019531 300.441406 374.480469 301.390625 374.480469 C 301.9375 374.480469 302.496094 374.320312 302.992188 374 L 316.226562 365.28125 C 316.871094 364.855469 317.320312 364.191406 317.476562 363.433594 C 317.636719 362.675781 317.480469 361.890625 317.054688 361.242188 L 297.351562 331.347656 L 312.527344 321.335938 L 317.449219 321.335938 C 331.964844 321.335938 343.773438 309.539062 343.773438 295.042969 L 343.773438 237.382812 C 343.773438 222.886719 331.964844 211.089844 317.445312 211.089844 Z M 291.707031 328.085938 C 290.363281 328.976562 289.992188 330.78125 290.878906 332.125 L 310.582031 362.015625 L 302.21875 367.53125 L 282.511719 337.632812 C 281.953125 336.785156 281.023438 336.324219 280.074219 336.324219 C 279.527344 336.324219 278.96875 336.480469 278.476562 336.800781 C 273.4375 340.109375 265.960938 345.042969 261.453125 348.019531 L 252.359375 282.78125 L 308.714844 316.867188 Z M 337.941406 295.042969 C 337.941406 306.324219 328.75 315.507812 317.449219 315.507812 L 316.796875 315.507812 C 316.554688 315.007812 316.1875 314.566406 315.695312 314.269531 L 279.671875 292.480469 L 279.671875 245.023438 L 290.316406 271.414062 C 290.761719 272.515625 291.832031 273.238281 293.019531 273.238281 C 294.210938 273.238281 295.277344 272.515625 295.726562 271.414062 L 306.371094 245.023438 L 306.371094 301.632812 C 306.371094 303.242188 307.675781 304.546875 309.289062 304.546875 C 310.898438 304.546875 312.203125 303.242188 312.203125 301.632812 L 312.203125 230.007812 C 312.203125 228.613281 311.210938 227.410156 309.839844 227.148438 C 308.464844 226.875 307.105469 227.628906 306.582031 228.917969 L 293.019531 262.53125 L 279.460938 228.917969 C 278.9375 227.628906 277.578125 226.875 276.203125 227.148438 C 274.832031 227.414062 273.839844 228.617188 273.839844 230.007812 L 273.839844 288.953125 L 259.511719 280.289062 L 253.144531 264.300781 C 261.488281 262.542969 267.773438 255.117188 267.773438 246.242188 L 267.773438 245.542969 C 267.773438 235.371094 259.511719 227.09375 249.355469 227.09375 L 236.9375 227.09375 C 235.324219 227.09375 234.019531 228.398438 234.019531 230.007812 L 234.019531 301.136719 C 234.019531 302.75 235.324219 304.050781 236.9375 304.050781 C 238.546875 304.050781 239.851562 302.75 239.851562 301.136719 L 239.851562 264.699219 L 247.027344 264.699219 L 251.25 275.292969 L 250.136719 274.621094 C 249.171875 274.035156 247.960938 274.066406 247.023438 274.683594 C 246.082031 275.304688 245.585938 276.40625 245.742188 277.523438 L 251.039062 315.507812 L 57.425781 315.507812 C 46.125 315.507812 36.933594 306.328125 36.933594 295.042969 L 36.933594 237.382812 C 36.933594 226.101562 46.125 216.921875 57.425781 216.921875 L 317.445312 216.921875 C 328.75 216.921875 337.9375 226.101562 337.9375 237.382812 L 337.9375 295.042969 Z M 249.355469 258.867188 L 249.078125 258.867188 C 249.066406 258.867188 249.058594 258.867188 249.050781 258.867188 L 239.851562 258.867188 L 239.851562 232.925781 L 249.355469 232.925781 C 256.296875 232.925781 261.945312 238.585938 261.945312 245.542969 L 261.945312 246.242188 C 261.945312 253.203125 256.296875 258.867188 249.355469 258.867188 Z M 249.355469 258.867188 " fill-opacity="1" fill-rule="nonzero"/></g><path fill="#e11e2c" d="M 99.242188 282.933594 C 97.71875 282.40625 96.058594 283.21875 95.539062 284.738281 C 92.679688 293.054688 88.050781 298.222656 83.457031 298.222656 C 76.230469 298.222656 68.5 285.359375 68.5 266.21875 C 68.5 247.054688 76.230469 234.179688 83.457031 234.179688 C 88.027344 234.179688 92.644531 239.335938 95.507812 247.636719 C 96.035156 249.15625 97.6875 249.960938 99.214844 249.441406 C 100.734375 248.917969 101.542969 247.257812 101.019531 245.734375 C 97.265625 234.851562 90.695312 228.351562 83.457031 228.351562 C 71.800781 228.351562 62.671875 244.984375 62.671875 266.21875 C 62.671875 287.433594 71.800781 304.050781 83.457031 304.050781 C 90.726562 304.050781 97.300781 297.542969 101.046875 286.632812 C 101.574219 285.113281 100.765625 283.449219 99.242188 282.933594 Z M 99.242188 282.933594 " fill-opacity="1" fill-rule="nonzero"/><path fill="#e11e2c" d="M 121.617188 228.347656 L 121.089844 228.347656 C 113.199219 228.347656 106.777344 234.769531 106.777344 242.660156 L 106.777344 289.738281 C 106.777344 297.628906 113.199219 304.050781 121.089844 304.050781 L 121.617188 304.050781 C 129.507812 304.050781 135.929688 297.628906 135.929688 289.738281 L 135.929688 242.660156 C 135.929688 234.769531 129.507812 228.347656 121.617188 228.347656 Z M 130.097656 289.738281 C 130.097656 294.414062 126.292969 298.222656 121.617188 298.222656 L 121.089844 298.222656 C 116.414062 298.222656 112.609375 294.414062 112.609375 289.738281 L 112.609375 242.660156 C 112.609375 237.984375 116.414062 234.175781 121.089844 234.175781 L 121.617188 234.175781 C 126.292969 234.175781 130.097656 237.984375 130.097656 242.660156 Z M 130.097656 289.738281 " fill-opacity="1" fill-rule="nonzero"/><path fill="#e11e2c" d="M 175.601562 228.347656 C 173.992188 228.347656 172.6875 229.652344 172.6875 231.261719 L 172.6875 286.507812 L 149.292969 230.144531 C 148.757812 228.863281 147.402344 228.125 146.03125 228.402344 C 144.664062 228.675781 143.683594 229.871094 143.683594 231.261719 L 143.683594 301.132812 C 143.683594 302.746094 144.984375 304.046875 146.597656 304.046875 C 148.210938 304.046875 149.511719 302.746094 149.511719 301.132812 L 149.511719 245.890625 L 172.910156 302.253906 C 173.367188 303.359375 174.441406 304.050781 175.601562 304.050781 C 175.789062 304.050781 175.980469 304.035156 176.171875 303.992188 C 177.535156 303.722656 178.519531 302.523438 178.519531 301.136719 L 178.519531 231.261719 C 178.519531 229.652344 177.214844 228.347656 175.601562 228.347656 Z M 175.601562 228.347656 " fill-opacity="1" fill-rule="nonzero"/><path fill="#e11e2c" d="M 212.59375 234.175781 C 214.207031 234.175781 215.511719 232.875 215.511719 231.261719 C 215.511719 229.652344 214.207031 228.347656 212.59375 228.347656 L 188.691406 228.347656 C 187.078125 228.347656 185.777344 229.652344 185.777344 231.261719 L 185.777344 301.136719 C 185.777344 302.75 187.078125 304.050781 188.691406 304.050781 C 190.304688 304.050781 191.605469 302.75 191.605469 301.136719 L 191.605469 262.714844 L 212.59375 262.714844 C 214.207031 262.714844 215.511719 261.414062 215.511719 259.800781 C 215.511719 258.1875 214.207031 256.886719 212.59375 256.886719 L 191.605469 256.886719 L 191.605469 234.175781 Z M 212.59375 234.175781 " fill-opacity="1" fill-rule="nonzero"/><path fill="#e11e2c" d="M 223.757812 227.09375 C 222.148438 227.09375 220.84375 228.398438 220.84375 230.007812 L 220.84375 301.132812 C 220.84375 302.746094 222.148438 304.046875 223.757812 304.046875 C 225.371094 304.046875 226.675781 302.746094 226.675781 301.132812 L 226.675781 230.007812 C 226.675781 228.398438 225.371094 227.09375 223.757812 227.09375 Z M 223.757812 227.09375 " fill-opacity="1" fill-rule="nonzero"/></svg>