<svg xmlns="http://www.w3.org/2000/svg" xmlns:xlink="http://www.w3.org/1999/xlink" width="500" zoomAndPan="magnify" viewBox="0 0 375 374.999991" height="500" preserveAspectRatio="xMidYMid meet" version="1.0"><defs><clipPath id="1f5ccf2337"><path d="M 3.203125 1.703125 L 372.953125 1.703125 L 372.953125 371.453125 L 3.203125 371.453125 Z M 3.203125 1.703125 " clip-rule="nonzero"/></clipPath></defs><path fill="#e11e2c" d="M 168.769531 99.09375 L 207.726562 99.09375 L 207.726562 108.832031 L 168.769531 108.832031 Z M 168.769531 99.09375 " fill-opacity="1" fill-rule="nonzero"/><g clip-path="url(#1f5ccf2337)"><path fill="#e11e2c" d="M 188.246094 1.703125 C 185.21875 1.703125 182.191406 1.777344 179.167969 1.925781 C 176.140625 2.074219 173.125 2.296875 170.109375 2.59375 C 167.09375 2.890625 164.089844 3.261719 161.09375 3.703125 C 158.097656 4.148438 155.117188 4.667969 152.144531 5.257812 C 149.175781 5.847656 146.222656 6.511719 143.285156 7.246094 C 140.347656 7.984375 137.429688 8.789062 134.53125 9.667969 C 131.632812 10.550781 128.757812 11.5 125.90625 12.519531 C 123.054688 13.539062 120.230469 14.628906 117.433594 15.789062 C 114.636719 16.945312 111.867188 18.171875 109.128906 19.46875 C 106.390625 20.761719 103.6875 22.125 101.015625 23.550781 C 98.347656 24.980469 95.710938 26.472656 93.113281 28.027344 C 90.515625 29.585938 87.960938 31.207031 85.441406 32.886719 C 82.921875 34.570312 80.449219 36.3125 78.015625 38.117188 C 75.582031 39.921875 73.195312 41.785156 70.855469 43.707031 C 68.515625 45.625 66.222656 47.605469 63.976562 49.636719 C 61.734375 51.671875 59.542969 53.757812 57.398438 55.898438 C 55.257812 58.042969 53.171875 60.234375 51.136719 62.476562 C 49.105469 64.722656 47.125 67.015625 45.207031 69.355469 C 43.285156 71.695312 41.421875 74.082031 39.617188 76.515625 C 37.8125 78.949219 36.070312 81.421875 34.386719 83.941406 C 32.707031 86.460938 31.085938 89.015625 29.527344 91.613281 C 27.972656 94.210938 26.480469 96.847656 25.050781 99.515625 C 23.625 102.1875 22.261719 104.890625 20.96875 107.628906 C 19.671875 110.367188 18.445312 113.136719 17.289062 115.933594 C 16.128906 118.730469 15.039062 121.554688 14.019531 124.40625 C 13 127.257812 12.050781 130.132812 11.167969 133.03125 C 10.289062 135.929688 9.484375 138.847656 8.746094 141.785156 C 8.011719 144.722656 7.347656 147.675781 6.757812 150.644531 C 6.167969 153.617188 5.648438 156.597656 5.203125 159.59375 C 4.761719 162.589844 4.390625 165.59375 4.09375 168.609375 C 3.796875 171.621094 3.574219 174.640625 3.425781 177.667969 C 3.277344 180.691406 3.203125 183.71875 3.203125 186.746094 C 3.203125 189.773438 3.277344 192.800781 3.425781 195.828125 C 3.574219 198.851562 3.796875 201.871094 4.09375 204.882812 C 4.390625 207.898438 4.761719 210.902344 5.203125 213.898438 C 5.648438 216.894531 6.167969 219.878906 6.757812 222.847656 C 7.347656 225.816406 8.011719 228.769531 8.746094 231.710938 C 9.484375 234.648438 10.289062 237.566406 11.167969 240.460938 C 12.050781 243.359375 13 246.234375 14.019531 249.085938 C 15.039062 251.9375 16.128906 254.761719 17.289062 257.558594 C 18.445312 260.359375 19.671875 263.125 20.96875 265.863281 C 22.261719 268.601562 23.625 271.304688 25.050781 273.976562 C 26.480469 276.648438 27.972656 279.28125 29.527344 281.878906 C 31.085938 284.476562 32.707031 287.035156 34.386719 289.550781 C 36.070312 292.070312 37.8125 294.546875 39.617188 296.976562 C 41.421875 299.410156 43.285156 301.796875 45.207031 304.136719 C 47.125 306.480469 49.105469 308.769531 51.136719 311.015625 C 53.171875 313.257812 55.257812 315.453125 57.398438 317.59375 C 59.542969 319.734375 61.734375 321.824219 63.976562 323.855469 C 66.222656 325.890625 68.515625 327.867188 70.855469 329.789062 C 73.195312 331.710938 75.582031 333.570312 78.015625 335.375 C 80.449219 337.179688 82.921875 338.921875 85.441406 340.605469 C 87.960938 342.289062 90.515625 343.910156 93.113281 345.464844 C 95.710938 347.023438 98.347656 348.515625 101.015625 349.941406 C 103.6875 351.371094 106.390625 352.730469 109.128906 354.027344 C 111.867188 355.320312 114.636719 356.546875 117.433594 357.707031 C 120.230469 358.863281 123.054688 359.953125 125.90625 360.976562 C 128.757812 361.996094 131.632812 362.945312 134.53125 363.824219 C 137.429688 364.703125 140.347656 365.511719 143.285156 366.246094 C 146.222656 366.980469 149.175781 367.644531 152.144531 368.234375 C 155.117188 368.828125 158.097656 369.34375 161.09375 369.789062 C 164.089844 370.234375 167.09375 370.605469 170.109375 370.902344 C 173.125 371.199219 176.140625 371.421875 179.167969 371.570312 C 182.191406 371.71875 185.21875 371.792969 188.246094 371.792969 C 191.273438 371.792969 194.300781 371.71875 197.328125 371.570312 C 200.351562 371.421875 203.371094 371.199219 206.382812 370.902344 C 209.398438 370.605469 212.402344 370.234375 215.398438 369.789062 C 218.394531 369.34375 221.378906 368.828125 224.347656 368.234375 C 227.316406 367.644531 230.269531 366.980469 233.210938 366.246094 C 236.148438 365.511719 239.066406 364.703125 241.960938 363.824219 C 244.859375 362.945312 247.734375 361.996094 250.585938 360.976562 C 253.4375 359.953125 256.261719 358.863281 259.058594 357.707031 C 261.859375 356.546875 264.625 355.320312 267.363281 354.027344 C 270.101562 352.730469 272.804688 351.371094 275.476562 349.941406 C 278.148438 348.515625 280.78125 347.023438 283.378906 345.464844 C 285.976562 343.910156 288.535156 342.289062 291.050781 340.605469 C 293.570312 338.921875 296.046875 337.179688 298.476562 335.375 C 300.910156 333.570312 303.296875 331.710938 305.636719 329.789062 C 307.980469 327.867188 310.273438 325.890625 312.515625 323.855469 C 314.757812 321.824219 316.953125 319.734375 319.09375 317.59375 C 321.234375 315.453125 323.324219 313.257812 325.355469 311.015625 C 327.390625 308.769531 329.367188 306.480469 331.289062 304.136719 C 333.210938 301.796875 335.070312 299.410156 336.875 296.976562 C 338.679688 294.546875 340.421875 292.070312 342.105469 289.550781 C 343.789062 287.035156 345.410156 284.476562 346.964844 281.878906 C 348.523438 279.28125 350.015625 276.648438 351.441406 273.976562 C 352.871094 271.304688 354.230469 268.601562 355.527344 265.863281 C 356.820312 263.125 358.046875 260.359375 359.207031 257.558594 C 360.363281 254.761719 361.453125 251.9375 362.476562 249.085938 C 363.496094 246.234375 364.445312 243.359375 365.324219 240.460938 C 366.203125 237.566406 367.011719 234.648438 367.746094 231.710938 C 368.480469 228.769531 369.144531 225.816406 369.734375 222.847656 C 370.328125 219.878906 370.84375 216.894531 371.289062 213.898438 C 371.734375 210.902344 372.105469 207.898438 372.402344 204.882812 C 372.699219 201.871094 372.921875 198.851562 373.070312 195.828125 C 373.21875 192.800781 373.292969 189.773438 373.292969 186.746094 C 373.289062 183.71875 373.210938 180.695312 373.058594 177.671875 C 372.90625 174.644531 372.683594 171.628906 372.382812 168.617188 C 372.082031 165.601562 371.710938 162.597656 371.261719 159.605469 C 370.816406 156.609375 370.296875 153.628906 369.703125 150.660156 C 369.109375 147.691406 368.445312 144.738281 367.707031 141.804688 C 366.96875 138.867188 366.160156 135.949219 365.277344 133.054688 C 364.398438 130.15625 363.445312 127.285156 362.425781 124.433594 C 361.402344 121.585938 360.3125 118.761719 359.152344 115.964844 C 357.992188 113.167969 356.761719 110.402344 355.46875 107.667969 C 354.171875 104.929688 352.808594 102.226562 351.382812 99.558594 C 349.953125 96.886719 348.460938 94.253906 346.902344 91.660156 C 345.347656 89.0625 343.726562 86.507812 342.042969 83.988281 C 340.359375 81.472656 338.617188 79 336.8125 76.566406 C 335.007812 74.136719 333.148438 71.75 331.226562 69.410156 C 329.304688 67.070312 327.328125 64.777344 325.292969 62.535156 C 323.261719 60.292969 321.175781 58.101562 319.035156 55.960938 C 316.894531 53.820312 314.699219 51.730469 312.457031 49.699219 C 310.214844 47.664062 307.921875 45.6875 305.582031 43.769531 C 303.242188 41.847656 300.855469 39.984375 298.425781 38.179688 C 295.996094 36.375 293.519531 34.632812 291.003906 32.949219 C 288.488281 31.269531 285.929688 29.648438 283.335938 28.089844 C 280.738281 26.53125 278.105469 25.039062 275.4375 23.613281 C 272.765625 22.183594 270.0625 20.820312 267.328125 19.527344 C 264.589844 18.230469 261.824219 17.003906 259.027344 15.84375 C 256.230469 14.683594 253.410156 13.589844 250.558594 12.570312 C 247.710938 11.546875 244.835938 10.597656 241.941406 9.714844 C 239.042969 8.835938 236.125 8.027344 233.191406 7.289062 C 230.253906 6.550781 227.300781 5.882812 224.332031 5.292969 C 221.363281 4.699219 218.382812 4.179688 215.386719 3.730469 C 212.394531 3.285156 209.390625 2.910156 206.378906 2.613281 C 203.367188 2.3125 200.347656 2.085938 197.324219 1.933594 C 194.300781 1.78125 191.273438 1.707031 188.246094 1.703125 Z M 266.160156 256.78125 C 266.125 258.027344 266.03125 259.269531 265.875 260.507812 C 265.71875 261.742188 265.503906 262.96875 265.226562 264.1875 C 264.949219 265.402344 264.613281 266.601562 264.222656 267.785156 C 263.828125 268.964844 263.375 270.128906 262.871094 271.265625 C 262.363281 272.40625 261.800781 273.515625 261.183594 274.601562 C 260.566406 275.683594 259.898438 276.734375 259.179688 277.753906 C 258.460938 278.769531 257.691406 279.75 256.875 280.695312 C 256.058594 281.636719 255.199219 282.539062 254.296875 283.398438 C 253.390625 284.253906 252.449219 285.066406 251.464844 285.835938 C 250.480469 286.601562 249.460938 287.316406 248.410156 287.984375 C 247.355469 288.648438 246.269531 289.261719 245.15625 289.824219 C 244.042969 290.382812 242.90625 290.886719 241.742188 291.335938 C 240.578125 291.785156 239.394531 292.175781 238.195312 292.507812 C 236.992188 292.839844 235.777344 293.113281 234.546875 293.324219 C 233.320312 293.539062 232.085938 293.691406 230.839844 293.785156 C 229.597656 293.875 228.351562 293.90625 227.105469 293.878906 L 149.386719 293.878906 C 148.140625 293.90625 146.894531 293.875 145.652344 293.785156 C 144.410156 293.691406 143.171875 293.539062 141.945312 293.324219 C 140.714844 293.113281 139.5 292.839844 138.300781 292.507812 C 137.097656 292.175781 135.914062 291.785156 134.753906 291.335938 C 133.589844 290.886719 132.449219 290.382812 131.335938 289.824219 C 130.222656 289.261719 129.140625 288.648438 128.085938 287.984375 C 127.03125 287.316406 126.011719 286.601562 125.027344 285.835938 C 124.046875 285.066406 123.101562 284.253906 122.199219 283.398438 C 121.292969 282.539062 120.433594 281.636719 119.617188 280.695312 C 118.800781 279.75 118.035156 278.769531 117.316406 277.753906 C 116.59375 276.734375 115.925781 275.683594 115.3125 274.601562 C 114.695312 273.515625 114.132812 272.40625 113.625 271.265625 C 113.117188 270.128906 112.667969 268.964844 112.273438 267.785156 C 111.878906 266.601562 111.542969 265.402344 111.265625 264.1875 C 110.992188 262.96875 110.773438 261.742188 110.617188 260.507812 C 110.460938 259.269531 110.367188 258.027344 110.332031 256.78125 L 110.332031 147.789062 C 110.332031 147.152344 110.394531 146.515625 110.519531 145.890625 C 110.644531 145.261719 110.828125 144.652344 111.074219 144.0625 C 111.320312 143.472656 111.621094 142.910156 111.972656 142.378906 C 112.328125 141.847656 112.734375 141.355469 113.1875 140.902344 C 113.636719 140.449219 114.128906 140.046875 114.660156 139.691406 C 115.191406 139.335938 115.753906 139.035156 116.34375 138.792969 C 116.9375 138.546875 117.546875 138.363281 118.171875 138.238281 C 118.800781 138.113281 119.433594 138.050781 120.074219 138.050781 C 120.710938 138.050781 121.34375 138.113281 121.972656 138.238281 C 122.597656 138.363281 123.207031 138.546875 123.800781 138.792969 C 124.390625 139.035156 124.953125 139.335938 125.484375 139.691406 C 126.015625 140.046875 126.507812 140.449219 126.960938 140.902344 C 127.410156 141.355469 127.816406 141.847656 128.171875 142.378906 C 128.527344 142.910156 128.824219 143.472656 129.070312 144.0625 C 129.316406 144.652344 129.5 145.261719 129.625 145.890625 C 129.75 146.515625 129.8125 147.152344 129.8125 147.789062 L 129.8125 256.78125 C 129.847656 257.390625 129.910156 257.996094 130.003906 258.597656 C 130.097656 259.199219 130.21875 259.792969 130.371094 260.386719 C 130.523438 260.976562 130.703125 261.554688 130.914062 262.128906 C 131.121094 262.699219 131.359375 263.261719 131.621094 263.8125 C 131.886719 264.359375 132.175781 264.894531 132.492188 265.417969 C 132.804688 265.9375 133.148438 266.441406 133.511719 266.929688 C 133.878906 267.417969 134.265625 267.886719 134.675781 268.335938 C 135.085938 268.785156 135.519531 269.214844 135.972656 269.621094 C 136.425781 270.027344 136.894531 270.414062 137.386719 270.773438 C 137.878906 271.136719 138.382812 271.472656 138.90625 271.785156 C 139.429688 272.097656 139.96875 272.382812 140.519531 272.640625 C 141.070312 272.902344 141.632812 273.132812 142.207031 273.335938 C 142.78125 273.542969 143.363281 273.71875 143.953125 273.867188 C 144.546875 274.011719 145.140625 274.132812 145.746094 274.21875 C 146.347656 274.308594 146.953125 274.367188 147.5625 274.398438 C 148.171875 274.429688 148.777344 274.429688 149.386719 274.398438 L 227.105469 274.398438 C 227.714844 274.429688 228.324219 274.429688 228.933594 274.398438 C 229.539062 274.367188 230.144531 274.308594 230.75 274.21875 C 231.351562 274.132812 231.949219 274.011719 232.539062 273.867188 C 233.128906 273.71875 233.710938 273.542969 234.285156 273.335938 C 234.859375 273.132812 235.421875 272.902344 235.972656 272.640625 C 236.527344 272.382812 237.0625 272.097656 237.585938 271.785156 C 238.109375 271.472656 238.617188 271.136719 239.105469 270.773438 C 239.597656 270.414062 240.070312 270.027344 240.523438 269.621094 C 240.976562 269.214844 241.40625 268.785156 241.816406 268.335938 C 242.230469 267.886719 242.617188 267.417969 242.980469 266.929688 C 243.347656 266.441406 243.6875 265.9375 244.003906 265.417969 C 244.320312 264.894531 244.609375 264.359375 244.871094 263.8125 C 245.136719 263.261719 245.371094 262.699219 245.582031 262.128906 C 245.789062 261.554688 245.96875 260.976562 246.121094 260.386719 C 246.273438 259.792969 246.394531 259.199219 246.488281 258.597656 C 246.582031 257.996094 246.648438 257.390625 246.683594 256.78125 L 246.683594 147.789062 C 246.683594 147.152344 246.746094 146.515625 246.871094 145.890625 C 246.992188 145.261719 247.179688 144.652344 247.421875 144.0625 C 247.667969 143.472656 247.96875 142.910156 248.324219 142.378906 C 248.679688 141.847656 249.082031 141.355469 249.535156 140.902344 C 249.988281 140.449219 250.480469 140.046875 251.011719 139.691406 C 251.542969 139.335938 252.101562 139.035156 252.695312 138.792969 C 253.285156 138.546875 253.894531 138.363281 254.519531 138.238281 C 255.148438 138.113281 255.78125 138.050781 256.421875 138.050781 C 257.0625 138.050781 257.695312 138.113281 258.320312 138.238281 C 258.949219 138.363281 259.558594 138.546875 260.148438 138.792969 C 260.738281 139.035156 261.300781 139.335938 261.832031 139.691406 C 262.363281 140.046875 262.855469 140.449219 263.308594 140.902344 C 263.761719 141.355469 264.164062 141.847656 264.519531 142.378906 C 264.875 142.910156 265.175781 143.472656 265.417969 144.0625 C 265.664062 144.652344 265.847656 145.261719 265.972656 145.890625 C 266.097656 146.515625 266.160156 147.152344 266.160156 147.789062 Z M 159.027344 235.441406 L 159.027344 167.269531 C 159.027344 166.628906 159.089844 165.996094 159.214844 165.367188 C 159.339844 164.742188 159.527344 164.132812 159.769531 163.542969 C 160.015625 162.949219 160.316406 162.390625 160.671875 161.859375 C 161.027344 161.324219 161.429688 160.832031 161.882812 160.382812 C 162.332031 159.929688 162.824219 159.527344 163.359375 159.171875 C 163.890625 158.816406 164.449219 158.515625 165.042969 158.269531 C 165.632812 158.027344 166.242188 157.839844 166.867188 157.714844 C 167.496094 157.589844 168.128906 157.527344 168.769531 157.527344 C 169.40625 157.527344 170.042969 157.589844 170.667969 157.714844 C 171.296875 157.839844 171.90625 158.027344 172.496094 158.269531 C 173.085938 158.515625 173.648438 158.816406 174.179688 159.171875 C 174.710938 159.527344 175.203125 159.929688 175.65625 160.382812 C 176.105469 160.832031 176.511719 161.324219 176.867188 161.859375 C 177.222656 162.390625 177.523438 162.949219 177.765625 163.542969 C 178.011719 164.132812 178.195312 164.742188 178.320312 165.367188 C 178.445312 165.996094 178.507812 166.628906 178.507812 167.269531 L 178.507812 235.441406 C 178.507812 236.082031 178.445312 236.714844 178.320312 237.34375 C 178.195312 237.96875 178.011719 238.578125 177.765625 239.167969 C 177.523438 239.761719 177.222656 240.320312 176.867188 240.855469 C 176.511719 241.386719 176.105469 241.878906 175.65625 242.328125 C 175.203125 242.78125 174.710938 243.183594 174.179688 243.539062 C 173.648438 243.894531 173.085938 244.195312 172.496094 244.441406 C 171.90625 244.683594 171.296875 244.871094 170.667969 244.996094 C 170.042969 245.121094 169.40625 245.183594 168.769531 245.183594 C 168.128906 245.183594 167.496094 245.121094 166.867188 244.996094 C 166.242188 244.871094 165.632812 244.683594 165.042969 244.441406 C 164.449219 244.195312 163.890625 243.894531 163.359375 243.539062 C 162.824219 243.183594 162.332031 242.78125 161.882812 242.328125 C 161.429688 241.878906 161.027344 241.386719 160.671875 240.855469 C 160.316406 240.320312 160.015625 239.761719 159.769531 239.167969 C 159.527344 238.578125 159.339844 237.96875 159.214844 237.34375 C 159.089844 236.714844 159.027344 236.082031 159.027344 235.441406 Z M 197.984375 235.441406 L 197.984375 167.269531 C 197.984375 166.628906 198.046875 165.996094 198.171875 165.367188 C 198.296875 164.742188 198.484375 164.132812 198.726562 163.542969 C 198.972656 162.949219 199.273438 162.390625 199.628906 161.859375 C 199.984375 161.324219 200.386719 160.832031 200.839844 160.382812 C 201.289062 159.929688 201.78125 159.527344 202.3125 159.171875 C 202.847656 158.816406 203.40625 158.515625 204 158.269531 C 204.589844 158.027344 205.199219 157.839844 205.824219 157.714844 C 206.453125 157.589844 207.085938 157.527344 207.726562 157.527344 C 208.363281 157.527344 209 157.589844 209.625 157.714844 C 210.253906 157.839844 210.863281 158.027344 211.453125 158.269531 C 212.042969 158.515625 212.605469 158.816406 213.136719 159.171875 C 213.667969 159.527344 214.160156 159.929688 214.613281 160.382812 C 215.0625 160.832031 215.46875 161.324219 215.824219 161.859375 C 216.179688 162.390625 216.476562 162.949219 216.722656 163.542969 C 216.96875 164.132812 217.152344 164.742188 217.277344 165.367188 C 217.402344 165.996094 217.464844 166.628906 217.464844 167.269531 L 217.464844 235.441406 C 217.464844 236.082031 217.402344 236.714844 217.277344 237.34375 C 217.152344 237.96875 216.96875 238.578125 216.722656 239.167969 C 216.476562 239.761719 216.179688 240.320312 215.824219 240.855469 C 215.46875 241.386719 215.0625 241.878906 214.613281 242.328125 C 214.160156 242.78125 213.667969 243.183594 213.136719 243.539062 C 212.605469 243.894531 212.042969 244.195312 211.453125 244.441406 C 210.863281 244.683594 210.253906 244.871094 209.625 244.996094 C 209 245.121094 208.363281 245.183594 207.726562 245.183594 C 207.085938 245.183594 206.453125 245.121094 205.824219 244.996094 C 205.199219 244.871094 204.589844 244.683594 204 244.441406 C 203.40625 244.195312 202.847656 243.894531 202.3125 243.539062 C 201.78125 243.183594 201.289062 242.78125 200.839844 242.328125 C 200.386719 241.878906 199.984375 241.386719 199.628906 240.855469 C 199.273438 240.320312 198.972656 239.761719 198.726562 239.167969 C 198.484375 238.578125 198.296875 237.96875 198.171875 237.34375 C 198.046875 236.714844 197.984375 236.082031 197.984375 235.441406 Z M 266.160156 128.3125 L 110.332031 128.3125 C 109.695312 128.3125 109.058594 128.25 108.433594 128.125 C 107.804688 128 107.195312 127.816406 106.605469 127.570312 C 106.015625 127.324219 105.453125 127.027344 104.921875 126.671875 C 104.390625 126.316406 103.898438 125.910156 103.445312 125.460938 C 102.996094 125.007812 102.589844 124.515625 102.234375 123.984375 C 101.878906 123.453125 101.578125 122.890625 101.335938 122.300781 C 101.089844 121.707031 100.90625 121.097656 100.78125 120.472656 C 100.65625 119.84375 100.59375 119.210938 100.59375 118.574219 C 100.59375 117.933594 100.65625 117.300781 100.78125 116.671875 C 100.90625 116.046875 101.089844 115.4375 101.335938 114.84375 C 101.578125 114.253906 101.878906 113.691406 102.234375 113.160156 C 102.589844 112.628906 102.996094 112.136719 103.445312 111.6875 C 103.898438 111.234375 104.390625 110.828125 104.921875 110.472656 C 105.453125 110.121094 106.015625 109.820312 106.605469 109.574219 C 107.195312 109.328125 107.804688 109.144531 108.433594 109.019531 C 109.058594 108.894531 109.695312 108.832031 110.332031 108.832031 L 149.289062 108.832031 L 149.289062 89.355469 C 149.289062 88.714844 149.351562 88.082031 149.476562 87.453125 C 149.601562 86.828125 149.785156 86.21875 150.03125 85.628906 C 150.277344 85.035156 150.574219 84.476562 150.929688 83.945312 C 151.285156 83.414062 151.691406 82.921875 152.140625 82.46875 C 152.59375 82.015625 153.085938 81.613281 153.617188 81.257812 C 154.148438 80.902344 154.710938 80.601562 155.300781 80.355469 C 155.894531 80.113281 156.503906 79.925781 157.128906 79.800781 C 157.757812 79.679688 158.390625 79.617188 159.027344 79.617188 L 217.464844 79.617188 C 218.105469 79.617188 218.738281 79.679688 219.363281 79.800781 C 219.992188 79.925781 220.601562 80.113281 221.191406 80.355469 C 221.78125 80.601562 222.34375 80.902344 222.875 81.257812 C 223.40625 81.613281 223.898438 82.015625 224.351562 82.46875 C 224.804688 82.921875 225.207031 83.414062 225.5625 83.945312 C 225.917969 84.476562 226.21875 85.035156 226.460938 85.628906 C 226.707031 86.21875 226.890625 86.828125 227.015625 87.453125 C 227.140625 88.082031 227.203125 88.714844 227.203125 89.355469 L 227.203125 108.832031 L 266.160156 108.832031 C 266.800781 108.832031 267.433594 108.894531 268.058594 109.019531 C 268.6875 109.144531 269.296875 109.328125 269.886719 109.574219 C 270.476562 109.820312 271.039062 110.121094 271.570312 110.472656 C 272.101562 110.828125 272.59375 111.234375 273.046875 111.6875 C 273.5 112.136719 273.902344 112.628906 274.257812 113.160156 C 274.613281 113.691406 274.914062 114.253906 275.160156 114.84375 C 275.402344 115.4375 275.585938 116.046875 275.710938 116.671875 C 275.835938 117.300781 275.898438 117.933594 275.898438 118.574219 C 275.898438 119.210938 275.835938 119.84375 275.710938 120.472656 C 275.585938 121.097656 275.402344 121.707031 275.160156 122.300781 C 274.914062 122.890625 274.613281 123.453125 274.257812 123.984375 C 273.902344 124.515625 273.5 125.007812 273.046875 125.460938 C 272.59375 125.910156 272.101562 126.316406 271.570312 126.671875 C 271.039062 127.027344 270.476562 127.324219 269.886719 127.570312 C 269.296875 127.816406 268.6875 128 268.058594 128.125 C 267.433594 128.25 266.800781 128.3125 266.160156 128.3125 Z M 266.160156 128.3125 " fill-opacity="1" fill-rule="nonzero"/></g></svg>