<svg xmlns="http://www.w3.org/2000/svg" xmlns:xlink="http://www.w3.org/1999/xlink" width="500" zoomAndPan="magnify" viewBox="0 0 375 374.999991" height="500" preserveAspectRatio="xMidYMid meet" version="1.0"><defs><clipPath id="78f7f779a7"><path d="M 2.53125 4.617188 L 374.515625 4.617188 L 374.515625 355.617188 L 2.53125 355.617188 Z M 2.53125 4.617188 " clip-rule="nonzero"/></clipPath></defs><g clip-path="url(#78f7f779a7)"><path fill="#000000" d="M 222.703125 301.855469 C 222.703125 305.164062 220.019531 307.851562 216.707031 307.851562 L 117.617188 307.851562 C 114.304688 307.851562 111.621094 305.164062 111.621094 301.855469 C 111.621094 298.542969 114.304688 295.859375 117.617188 295.859375 L 216.707031 295.859375 C 220.019531 295.859375 222.703125 298.542969 222.703125 301.855469 Z M 117.617188 117.285156 L 216.707031 117.285156 C 220.019531 117.285156 222.703125 114.597656 222.703125 111.289062 C 222.703125 107.976562 220.019531 105.292969 216.707031 105.292969 L 117.617188 105.292969 C 114.304688 105.292969 111.621094 107.976562 111.621094 111.289062 C 111.621094 114.597656 114.304688 117.285156 117.617188 117.285156 Z M 117.617188 146.699219 L 216.707031 146.699219 C 220.019531 146.699219 222.703125 144.015625 222.703125 140.703125 C 222.703125 137.390625 220.019531 134.707031 216.707031 134.707031 L 117.617188 134.707031 C 114.304688 134.707031 111.621094 137.390625 111.621094 140.703125 C 111.621094 144.015625 114.304688 146.699219 117.617188 146.699219 Z M 97.25 206.570312 C 97.25 225.933594 81.492188 241.691406 62.128906 241.691406 C 42.765625 241.691406 27.007812 225.933594 27.007812 206.570312 C 27.007812 187.207031 42.765625 171.453125 62.128906 171.453125 C 81.492188 171.453125 97.25 187.207031 97.25 206.570312 Z M 85.253906 206.570312 C 85.253906 193.820312 74.882812 183.445312 62.128906 183.445312 C 49.375 183.445312 39.003906 193.820312 39.003906 206.570312 C 39.003906 219.324219 49.375 229.699219 62.128906 229.699219 C 74.882812 229.699219 85.253906 219.324219 85.253906 206.570312 Z M 97.25 287.148438 C 97.25 306.511719 81.492188 322.265625 62.128906 322.265625 C 42.765625 322.265625 27.007812 306.511719 27.007812 287.148438 C 27.007812 267.78125 42.765625 252.027344 62.128906 252.027344 C 81.492188 252.027344 97.25 267.78125 97.25 287.148438 Z M 85.253906 287.148438 C 85.253906 274.394531 74.882812 264.019531 62.128906 264.019531 C 49.375 264.019531 39.003906 274.394531 39.003906 287.148438 C 39.003906 299.898438 49.375 310.273438 62.128906 310.273438 C 74.882812 310.273438 85.253906 299.898438 85.253906 287.148438 Z M 97.25 125.996094 C 97.25 145.359375 81.492188 161.113281 62.128906 161.113281 C 42.765625 161.113281 27.007812 145.359375 27.007812 125.996094 C 27.007812 106.632812 42.765625 90.878906 62.128906 90.878906 C 81.492188 90.878906 97.25 106.632812 97.25 125.996094 Z M 85.253906 125.996094 C 85.253906 113.242188 74.882812 102.871094 62.128906 102.871094 C 49.375 102.871094 39.003906 113.242188 39.003906 125.996094 C 39.003906 138.746094 49.375 149.121094 62.128906 149.121094 C 74.882812 149.121094 85.253906 138.746094 85.253906 125.996094 Z M 295.710938 220.179688 C 296.941406 234.628906 292.46875 248.691406 283.121094 259.777344 C 273.773438 270.863281 260.664062 277.644531 246.214844 278.875 C 244.648438 279.007812 243.082031 279.074219 241.523438 279.074219 C 228.746094 279.074219 216.5 274.617188 206.617188 266.28125 C 195.53125 256.933594 188.75 243.828125 187.519531 229.378906 C 186.292969 214.929688 190.765625 200.867188 200.113281 189.78125 C 209.460938 178.695312 222.566406 171.914062 237.015625 170.6875 C 251.46875 169.460938 265.527344 173.929688 276.613281 183.277344 C 287.699219 192.625 294.484375 205.730469 295.710938 220.179688 Z M 283.761719 221.195312 C 282.804688 209.9375 277.523438 199.726562 268.882812 192.445312 C 261.183594 185.953125 251.644531 182.480469 241.691406 182.480469 C 240.476562 182.480469 239.257812 182.53125 238.03125 182.636719 C 226.777344 183.59375 216.566406 188.875 209.28125 197.511719 C 201.996094 206.148438 198.515625 217.105469 199.472656 228.363281 C 200.425781 239.621094 205.710938 249.832031 214.347656 257.113281 C 222.984375 264.398438 233.9375 267.886719 245.199219 266.925781 C 256.457031 265.96875 266.667969 260.683594 273.953125 252.046875 C 281.234375 243.410156 284.71875 232.453125 283.761719 221.195312 Z M 371.324219 327.789062 L 358.761719 342.238281 C 356.371094 344.988281 353 346.398438 349.613281 346.398438 C 346.796875 346.398438 343.96875 345.421875 341.675781 343.433594 L 302.835938 309.667969 C 300.398438 307.550781 298.933594 304.605469 298.707031 301.375 C 298.601562 299.863281 298.785156 298.378906 299.214844 296.972656 L 285.363281 285.292969 L 285.363281 306.308594 C 285.363281 312.96875 279.945312 318.382812 273.285156 318.382812 L 247.199219 318.382812 L 247.199219 343.273438 C 247.199219 349.929688 241.78125 355.347656 235.125 355.347656 L 14.589844 355.347656 C 7.929688 355.347656 2.515625 349.929688 2.515625 343.273438 L 2.515625 53.847656 C 2.515625 47.191406 7.933594 41.773438 14.589844 41.773438 L 40.675781 41.773438 L 40.675781 16.882812 C 40.675781 10.226562 46.09375 4.808594 52.753906 4.808594 L 273.285156 4.808594 C 279.945312 4.808594 285.363281 10.226562 285.363281 16.882812 L 285.363281 166.070312 C 301.582031 178.167969 312.761719 196.875 314.609375 218.574219 C 315.980469 234.683594 311.992188 250.039062 304.144531 262.882812 L 318.503906 274.992188 C 319.757812 274.445312 321.097656 274.101562 322.5 274.003906 C 325.734375 273.777344 328.855469 274.820312 331.292969 276.9375 L 370.132812 310.703125 C 372.566406 312.820312 374.035156 315.769531 374.261719 319 C 374.484375 322.230469 373.441406 325.351562 371.324219 327.789062 Z M 297.0625 272.59375 C 295.914062 273.921875 294.722656 275.210938 293.484375 276.457031 L 306.28125 287.246094 L 309.730469 283.277344 Z M 241.660156 163.515625 C 239.929688 163.515625 238.183594 163.589844 236.425781 163.738281 C 220.121094 165.125 205.332031 172.777344 194.785156 185.289062 C 184.234375 197.796875 179.1875 213.664062 180.574219 229.96875 C 181.960938 246.273438 189.613281 261.0625 202.125 271.609375 C 214.632812 282.160156 230.5 287.207031 246.804688 285.820312 C 280.464844 282.957031 305.519531 253.246094 302.660156 219.589844 C 299.945312 187.691406 273.109375 163.515625 241.660156 163.515625 Z M 209.5 79.472656 L 226.726562 79.472656 L 209.5 62.246094 Z M 52.667969 41.773438 L 200.984375 41.773438 C 202.714844 41.773438 204.355469 42.125 205.859375 42.789062 C 205.90625 42.808594 205.949219 42.820312 205.996094 42.839844 C 206.105469 42.890625 206.207031 42.953125 206.316406 43.003906 C 206.484375 43.089844 206.65625 43.171875 206.820312 43.265625 C 206.992188 43.359375 207.160156 43.464844 207.324219 43.570312 C 207.472656 43.664062 207.625 43.75 207.769531 43.851562 C 207.96875 43.988281 208.15625 44.136719 208.347656 44.285156 C 208.453125 44.367188 208.5625 44.441406 208.667969 44.53125 C 208.964844 44.773438 209.25 45.035156 209.527344 45.308594 C 209.527344 45.308594 209.527344 45.3125 209.527344 45.3125 L 243.664062 79.445312 C 243.941406 79.722656 244.199219 80.007812 244.441406 80.300781 C 244.535156 80.414062 244.613281 80.527344 244.699219 80.640625 C 244.84375 80.824219 244.988281 81.011719 245.121094 81.203125 C 245.222656 81.347656 245.308594 81.496094 245.402344 81.644531 C 245.507812 81.8125 245.613281 81.980469 245.710938 82.15625 C 245.796875 82.3125 245.878906 82.476562 245.960938 82.640625 C 246.015625 82.75 246.078125 82.859375 246.132812 82.972656 C 246.152344 83.019531 246.167969 83.070312 246.1875 83.117188 C 246.851562 84.621094 247.203125 86.257812 247.203125 87.988281 L 247.203125 151.738281 C 256.464844 152.441406 265.308594 154.894531 273.371094 158.789062 L 273.371094 16.882812 C 273.371094 16.847656 273.324219 16.800781 273.285156 16.800781 L 52.753906 16.800781 C 52.714844 16.800781 52.667969 16.847656 52.667969 16.882812 Z M 235.207031 343.273438 L 235.207031 297.765625 C 220.257812 296.488281 206.097656 290.648438 194.390625 280.777344 C 193.488281 280.015625 192.605469 279.234375 191.746094 278.433594 L 117.617188 278.433594 C 114.304688 278.433594 111.621094 275.75 111.621094 272.4375 C 111.621094 269.128906 114.304688 266.441406 117.617188 266.441406 L 181.332031 266.441406 C 174.125 256.054688 169.726562 243.917969 168.625 230.984375 C 168.519531 229.746094 168.445312 228.507812 168.402344 227.277344 L 117.617188 227.277344 C 114.304688 227.277344 111.621094 224.589844 111.621094 221.28125 C 111.621094 217.96875 114.304688 215.28125 117.617188 215.28125 L 168.960938 215.28125 C 169.730469 209.292969 171.238281 203.445312 173.453125 197.859375 L 117.617188 197.859375 C 114.304688 197.859375 111.621094 195.175781 111.621094 191.863281 C 111.621094 188.550781 114.304688 185.867188 117.617188 185.867188 L 179.542969 185.867188 C 181.359375 182.984375 183.382812 180.207031 185.617188 177.554688 C 198.1875 162.652344 215.792969 153.515625 235.207031 151.808594 L 235.207031 91.464844 L 206.542969 91.464844 C 201.5625 91.464844 197.507812 87.410156 197.507812 82.425781 L 197.507812 53.765625 L 14.589844 53.765625 C 14.554688 53.765625 14.507812 53.8125 14.507812 53.847656 L 14.507812 343.273438 C 14.507812 343.308594 14.554688 343.355469 14.589844 343.355469 L 235.121094 343.355469 C 235.160156 343.355469 235.207031 343.308594 235.207031 343.273438 Z M 273.367188 306.308594 L 273.367188 290.789062 C 265.5625 294.554688 256.957031 296.992188 247.820312 297.769531 C 247.613281 297.785156 247.40625 297.792969 247.199219 297.808594 L 247.199219 306.390625 L 273.285156 306.390625 C 273.320312 306.390625 273.367188 306.34375 273.367188 306.308594 Z M 362.261719 319.753906 L 323.421875 285.988281 C 323.40625 285.972656 323.378906 285.96875 323.347656 285.96875 C 323.3125 285.96875 323.273438 285.980469 323.253906 286 L 310.691406 300.453125 C 310.65625 300.492188 310.660156 300.582031 310.703125 300.617188 L 349.546875 334.382812 C 349.582031 334.417969 349.675781 334.410156 349.710938 334.371094 L 362.273438 319.921875 C 362.273438 319.921875 362.273438 319.921875 362.273438 319.917969 C 362.3125 319.878906 362.304688 319.789062 362.261719 319.753906 Z M 362.261719 319.753906 " fill-opacity="1" fill-rule="nonzero"/></g></svg>