<svg xmlns="http://www.w3.org/2000/svg" xmlns:xlink="http://www.w3.org/1999/xlink" width="500" zoomAndPan="magnify" viewBox="0 0 375 374.999991" height="500" preserveAspectRatio="xMidYMid meet" version="1.0"><defs><clipPath id="abce663cda"><path d="M 157 9.230469 L 365.480469 9.230469 L 365.480469 218 L 157 218 Z M 157 9.230469 " clip-rule="nonzero"/></clipPath><clipPath id="97466b104d"><path d="M 9.230469 57 L 318 57 L 318 365.480469 L 9.230469 365.480469 Z M 9.230469 57 " clip-rule="nonzero"/></clipPath></defs><g clip-path="url(#abce663cda)"><path fill="#e11e2c" d="M 321.484375 14.292969 C 318.261719 11.070312 313.777344 9.230469 309.292969 9.230469 C 304.691406 9.230469 300.320312 11.070312 297.101562 14.292969 L 165.183594 146.09375 C 162.195312 149.082031 160.46875 153.109375 160.238281 157.363281 L 157.9375 198.882812 C 157.707031 203.710938 159.550781 208.542969 163 211.992188 C 166.21875 215.214844 170.589844 217.054688 175.191406 217.054688 L 176.109375 217.054688 L 217.628906 214.753906 C 221.769531 214.523438 225.796875 212.683594 228.785156 209.691406 L 360.703125 78.007812 C 363.921875 74.671875 365.761719 70.300781 365.761719 65.816406 C 365.761719 61.214844 363.921875 56.84375 360.703125 53.507812 Z M 321.484375 14.292969 " fill-opacity="1" fill-rule="nonzero"/></g><g clip-path="url(#97466b104d)"><path fill="#e11e2c" d="M 67.476562 365.761719 L 258.792969 365.761719 C 290.914062 365.761719 317.039062 339.632812 317.039062 307.515625 L 317.039062 189.578125 C 317.039062 180.050781 309.3125 172.328125 299.789062 172.328125 C 290.265625 172.328125 282.535156 180.050781 282.535156 189.578125 L 282.535156 307.515625 C 282.535156 320.605469 271.890625 331.257812 258.792969 331.257812 L 67.476562 331.257812 C 54.382812 331.257812 43.734375 320.605469 43.734375 307.515625 L 43.734375 116.199219 C 43.734375 103.109375 54.382812 92.457031 67.476562 92.457031 L 185.417969 92.457031 C 194.941406 92.457031 202.671875 84.734375 202.671875 75.203125 C 202.671875 65.675781 194.941406 57.953125 185.417969 57.953125 L 67.476562 57.953125 C 35.355469 57.953125 9.230469 84.082031 9.230469 116.199219 L 9.230469 307.515625 C 9.230469 339.632812 35.355469 365.761719 67.476562 365.761719 Z M 67.476562 365.761719 " fill-opacity="1" fill-rule="nonzero"/></g></svg>