<svg xmlns="http://www.w3.org/2000/svg" xmlns:xlink="http://www.w3.org/1999/xlink" width="500" zoomAndPan="magnify" viewBox="0 0 375 374.999991" height="500" preserveAspectRatio="xMidYMid meet" version="1.0"><defs><clipPath id="6936a95635"><path d="M 50.335938 3.496094 L 324.835938 3.496094 L 324.835938 371.554688 L 50.335938 371.554688 Z M 50.335938 3.496094 " clip-rule="nonzero"/></clipPath></defs><g clip-path="url(#6936a95635)"><path fill="#000000" d="M 77.785156 3.308594 C 62.78125 3.308594 50.335938 15.742188 50.335938 30.730469 L 50.335938 344.132812 C 50.335938 359.121094 62.78125 371.554688 77.785156 371.554688 L 297.382812 371.554688 C 312.386719 371.554688 324.835938 359.121094 324.835938 344.132812 L 324.835938 30.730469 C 324.835938 15.742188 312.386719 3.308594 297.382812 3.308594 Z M 77.785156 26.8125 L 297.382812 26.8125 C 299.761719 26.8125 301.304688 28.355469 301.304688 30.730469 L 301.304688 344.132812 C 301.304688 346.507812 299.761719 348.050781 297.382812 348.050781 L 77.785156 348.050781 C 75.410156 348.050781 73.863281 346.507812 73.863281 344.132812 L 73.863281 30.730469 C 73.863281 28.355469 75.410156 26.8125 77.785156 26.8125 Z M 93.46875 73.824219 L 93.46875 113 L 132.683594 113 L 132.683594 73.824219 Z M 164.054688 81.65625 C 157.558594 81.65625 152.292969 86.921875 152.292969 93.410156 C 152.292969 99.902344 157.558594 105.164062 164.054688 105.164062 L 269.933594 105.164062 C 276.429688 105.164062 281.699219 99.902344 281.699219 93.410156 C 281.699219 86.921875 276.429688 81.65625 269.933594 81.65625 Z M 93.46875 136.503906 L 93.46875 175.679688 L 132.683594 175.679688 L 132.683594 136.503906 Z M 164.054688 144.339844 C 157.558594 144.339844 152.292969 149.601562 152.292969 156.089844 C 152.292969 162.582031 157.558594 167.84375 164.054688 167.84375 L 269.933594 167.84375 C 276.429688 167.84375 281.699219 162.582031 281.699219 156.089844 C 281.699219 149.601562 276.429688 144.339844 269.933594 144.339844 Z M 93.46875 199.183594 L 93.46875 238.359375 L 132.683594 238.359375 L 132.683594 199.183594 Z M 164.054688 207.019531 C 157.558594 207.019531 152.292969 212.28125 152.292969 218.773438 C 152.292969 225.261719 157.558594 230.523438 164.054688 230.523438 L 269.933594 230.523438 C 276.429688 230.523438 281.699219 225.261719 281.699219 218.773438 C 281.699219 212.28125 276.429688 207.019531 269.933594 207.019531 Z M 93.46875 261.863281 L 93.46875 301.039062 L 132.683594 301.039062 L 132.683594 261.863281 Z M 164.054688 269.699219 C 157.558594 269.699219 152.292969 274.960938 152.292969 281.453125 C 152.292969 287.945312 157.558594 293.207031 164.054688 293.207031 L 269.933594 293.207031 C 276.429688 293.207031 281.699219 287.945312 281.699219 281.453125 C 281.699219 274.960938 276.429688 269.699219 269.933594 269.699219 Z M 164.054688 269.699219 " fill-opacity="1" fill-rule="nonzero"/></g></svg>