<svg xmlns="http://www.w3.org/2000/svg" xmlns:xlink="http://www.w3.org/1999/xlink" width="500" zoomAndPan="magnify" viewBox="0 0 375 374.999991" height="500" preserveAspectRatio="xMidYMid meet" version="1.0"><defs><clipPath id="980198ea9c"><path d="M 5 17 L 272 17 L 272 365.449219 L 5 365.449219 Z M 5 17 " clip-rule="nonzero"/></clipPath><clipPath id="515c5c719c"><path d="M 171 139 L 371.445312 139 L 371.445312 240 L 171 240 Z M 171 139 " clip-rule="nonzero"/></clipPath></defs><g clip-path="url(#980198ea9c)"><path fill="#e32229" d="M 254.675781 239.40625 C 254.132812 239.40625 253.589844 239.429688 253.046875 239.484375 C 252.507812 239.539062 251.96875 239.617188 251.4375 239.722656 C 250.902344 239.832031 250.375 239.960938 249.855469 240.121094 C 249.335938 240.277344 248.824219 240.460938 248.320312 240.667969 C 247.816406 240.878906 247.328125 241.109375 246.847656 241.367188 C 246.367188 241.621094 245.902344 241.902344 245.449219 242.203125 C 244.996094 242.507812 244.558594 242.828125 244.140625 243.175781 C 243.71875 243.519531 243.316406 243.882812 242.933594 244.269531 C 242.546875 244.652344 242.183594 245.054688 241.835938 245.476562 C 241.492188 245.898438 241.167969 246.332031 240.867188 246.785156 C 240.566406 247.238281 240.285156 247.703125 240.027344 248.183594 C 239.773438 248.664062 239.539062 249.15625 239.332031 249.65625 C 239.125 250.160156 238.941406 250.671875 238.78125 251.191406 C 238.625 251.710938 238.492188 252.238281 238.386719 252.773438 C 238.28125 253.304688 238.199219 253.84375 238.148438 254.386719 C 238.09375 254.925781 238.066406 255.46875 238.066406 256.011719 L 238.066406 289.226562 C 238.066406 289.773438 238.042969 290.316406 237.988281 290.855469 C 237.933594 291.398438 237.855469 291.933594 237.75 292.46875 C 237.640625 293.003906 237.511719 293.527344 237.351562 294.050781 C 237.195312 294.570312 237.011719 295.082031 236.804688 295.585938 C 236.59375 296.085938 236.363281 296.578125 236.105469 297.058594 C 235.851562 297.535156 235.570312 298.003906 235.269531 298.457031 C 234.964844 298.90625 234.644531 299.34375 234.296875 299.765625 C 233.953125 300.183594 233.589844 300.585938 233.203125 300.972656 C 232.820312 301.355469 232.417969 301.722656 231.996094 302.066406 C 231.574219 302.410156 231.140625 302.734375 230.6875 303.039062 C 230.234375 303.339844 229.769531 303.617188 229.289062 303.875 C 228.808594 304.132812 228.316406 304.363281 227.816406 304.570312 C 227.3125 304.78125 226.800781 304.964844 226.28125 305.121094 C 225.761719 305.277344 225.234375 305.410156 224.699219 305.515625 C 224.167969 305.625 223.628906 305.703125 223.085938 305.757812 C 222.546875 305.808594 222.003906 305.835938 221.460938 305.835938 L 138.421875 305.835938 L 138.421875 73.328125 L 221.460938 73.328125 C 222.003906 73.328125 222.546875 73.351562 223.085938 73.40625 C 223.628906 73.460938 224.167969 73.539062 224.699219 73.644531 C 225.234375 73.75 225.761719 73.882812 226.28125 74.042969 C 226.800781 74.199219 227.3125 74.382812 227.816406 74.589844 C 228.316406 74.796875 228.808594 75.03125 229.289062 75.289062 C 229.769531 75.542969 230.234375 75.824219 230.6875 76.125 C 231.140625 76.425781 231.574219 76.75 231.996094 77.097656 C 232.417969 77.441406 232.820312 77.804688 233.203125 78.191406 C 233.589844 78.574219 233.953125 78.976562 234.296875 79.398438 C 234.644531 79.820312 234.964844 80.253906 235.269531 80.707031 C 235.570312 81.160156 235.851562 81.625 236.105469 82.105469 C 236.363281 82.585938 236.59375 83.074219 236.804688 83.578125 C 237.011719 84.082031 237.195312 84.59375 237.351562 85.113281 C 237.511719 85.632812 237.640625 86.160156 237.75 86.695312 C 237.855469 87.226562 237.933594 87.765625 237.988281 88.304688 C 238.042969 88.847656 238.066406 89.390625 238.066406 89.933594 L 238.066406 123.148438 C 238.066406 123.695312 238.09375 124.238281 238.148438 124.777344 C 238.199219 125.320312 238.28125 125.855469 238.386719 126.390625 C 238.492188 126.921875 238.625 127.449219 238.78125 127.972656 C 238.941406 128.492188 239.125 129.003906 239.332031 129.503906 C 239.539062 130.007812 239.773438 130.5 240.027344 130.980469 C 240.285156 131.457031 240.566406 131.925781 240.867188 132.375 C 241.167969 132.828125 241.492188 133.265625 241.835938 133.6875 C 242.183594 134.105469 242.546875 134.507812 242.933594 134.894531 C 243.316406 135.277344 243.71875 135.644531 244.140625 135.988281 C 244.558594 136.332031 244.996094 136.65625 245.449219 136.957031 C 245.902344 137.261719 246.367188 137.539062 246.847656 137.796875 C 247.328125 138.054688 247.816406 138.285156 248.320312 138.492188 C 248.824219 138.703125 249.335938 138.886719 249.855469 139.042969 C 250.375 139.199219 250.902344 139.332031 251.4375 139.4375 C 251.96875 139.542969 252.507812 139.625 253.046875 139.679688 C 253.589844 139.730469 254.132812 139.757812 254.675781 139.757812 C 255.21875 139.757812 255.761719 139.730469 256.304688 139.679688 C 256.84375 139.625 257.382812 139.542969 257.914062 139.4375 C 258.449219 139.332031 258.976562 139.199219 259.496094 139.042969 C 260.015625 138.886719 260.527344 138.703125 261.03125 138.492188 C 261.535156 138.285156 262.023438 138.054688 262.503906 137.796875 C 262.984375 137.539062 263.449219 137.261719 263.902344 136.957031 C 264.355469 136.65625 264.792969 136.332031 265.210938 135.988281 C 265.632812 135.644531 266.035156 135.277344 266.417969 134.894531 C 266.804688 134.507812 267.167969 134.105469 267.515625 133.6875 C 267.859375 133.265625 268.183594 132.828125 268.484375 132.375 C 268.785156 131.925781 269.066406 131.457031 269.324219 130.980469 C 269.578125 130.5 269.8125 130.007812 270.019531 129.503906 C 270.226562 129.003906 270.410156 128.492188 270.566406 127.972656 C 270.726562 127.449219 270.859375 126.921875 270.964844 126.390625 C 271.070312 125.855469 271.148438 125.320312 271.203125 124.777344 C 271.257812 124.238281 271.285156 123.695312 271.285156 123.148438 L 271.285156 89.933594 C 271.285156 88.300781 271.203125 86.675781 271.042969 85.050781 C 270.882812 83.425781 270.644531 81.816406 270.324219 80.214844 C 270.007812 78.613281 269.613281 77.03125 269.136719 75.472656 C 268.664062 73.910156 268.117188 72.375 267.492188 70.867188 C 266.867188 69.359375 266.167969 67.886719 265.398438 66.449219 C 264.632812 65.007812 263.792969 63.609375 262.886719 62.253906 C 261.980469 60.898438 261.007812 59.585938 259.972656 58.328125 C 258.9375 57.066406 257.84375 55.859375 256.691406 54.703125 C 255.535156 53.550781 254.328125 52.457031 253.066406 51.421875 C 251.804688 50.386719 250.496094 49.414062 249.140625 48.507812 C 247.785156 47.601562 246.386719 46.761719 244.945312 45.992188 C 243.507812 45.222656 242.035156 44.527344 240.527344 43.902344 C 239.019531 43.277344 237.484375 42.730469 235.921875 42.257812 C 234.363281 41.78125 232.78125 41.386719 231.179688 41.066406 C 229.578125 40.75 227.96875 40.511719 226.34375 40.351562 C 224.71875 40.191406 223.089844 40.109375 221.460938 40.109375 L 136.59375 40.109375 C 136 38.265625 135.25 36.488281 134.34375 34.777344 C 133.4375 33.0625 132.390625 31.441406 131.199219 29.914062 C 130.011719 28.382812 128.695312 26.96875 127.261719 25.667969 C 125.824219 24.371094 124.285156 23.203125 122.644531 22.175781 C 121.449219 21.4375 120.210938 20.777344 118.929688 20.195312 C 117.652344 19.613281 116.339844 19.113281 115 18.699219 C 113.65625 18.285156 112.292969 17.957031 110.910156 17.714844 C 109.523438 17.472656 108.128906 17.320312 106.726562 17.253906 C 105.324219 17.1875 103.921875 17.210938 102.519531 17.324219 C 101.121094 17.4375 99.730469 17.640625 98.355469 17.929688 C 96.980469 18.21875 95.632812 18.589844 94.304688 19.050781 C 92.976562 19.511719 91.683594 20.054688 90.425781 20.679688 L 33.125 49.246094 C 31.0625 50.277344 29.078125 51.445312 27.175781 52.75 C 25.273438 54.054688 23.472656 55.488281 21.769531 57.042969 C 20.066406 58.601562 18.476562 60.269531 17.007812 62.046875 C 15.535156 63.824219 14.191406 65.695312 12.980469 67.65625 C 11.769531 69.621094 10.699219 71.660156 9.769531 73.769531 C 8.84375 75.882812 8.0625 78.050781 7.4375 80.269531 C 6.808594 82.492188 6.335938 84.742188 6.023438 87.03125 C 5.707031 89.316406 5.554688 91.613281 5.558594 93.921875 L 5.558594 298.527344 C 5.558594 299.824219 5.613281 301.117188 5.714844 302.40625 C 5.820312 303.699219 5.972656 304.980469 6.175781 306.261719 C 6.378906 307.539062 6.632812 308.808594 6.933594 310.066406 C 7.238281 311.328125 7.585938 312.570312 7.988281 313.804688 C 8.386719 315.035156 8.832031 316.25 9.328125 317.445312 C 9.820312 318.640625 10.359375 319.816406 10.945312 320.972656 C 11.53125 322.128906 12.160156 323.257812 12.835938 324.363281 C 13.507812 325.46875 14.226562 326.546875 14.984375 327.597656 C 15.742188 328.644531 16.539062 329.664062 17.375 330.652344 C 18.210938 331.640625 19.085938 332.59375 20 333.511719 C 20.910156 334.433594 21.855469 335.316406 22.835938 336.160156 C 23.816406 337.007812 24.828125 337.8125 25.871094 338.578125 C 26.914062 339.347656 27.984375 340.070312 29.085938 340.753906 C 30.1875 341.4375 31.308594 342.078125 32.460938 342.671875 C 33.609375 343.269531 34.78125 343.820312 35.972656 344.324219 C 37.164062 344.828125 38.375 345.285156 39.605469 345.695312 L 94.742188 364.128906 C 98.136719 365.269531 101.625 365.820312 105.203125 365.789062 C 108.679688 365.765625 112.070312 365.230469 115.382812 364.183594 C 118.695312 363.136719 121.78125 361.625 124.636719 359.644531 C 126.390625 358.449219 128.015625 357.097656 129.507812 355.589844 C 131.003906 354.082031 132.339844 352.445312 133.519531 350.683594 C 134.703125 348.917969 135.703125 347.058594 136.527344 345.101562 C 137.351562 343.144531 137.984375 341.128906 138.421875 339.050781 L 221.460938 339.050781 C 223.089844 339.050781 224.71875 338.972656 226.34375 338.8125 C 227.96875 338.652344 229.578125 338.414062 231.179688 338.09375 C 232.78125 337.777344 234.363281 337.378906 235.921875 336.90625 C 237.484375 336.433594 239.019531 335.882812 240.527344 335.257812 C 242.035156 334.636719 243.507812 333.9375 244.945312 333.167969 C 246.386719 332.398438 247.785156 331.5625 249.140625 330.65625 C 250.496094 329.75 251.804688 328.777344 253.066406 327.742188 C 254.328125 326.707031 255.535156 325.613281 256.691406 324.460938 C 257.84375 323.304688 258.9375 322.097656 259.972656 320.835938 C 261.007812 319.574219 261.980469 318.265625 262.886719 316.910156 C 263.792969 315.550781 264.632812 314.152344 265.398438 312.714844 C 266.167969 311.277344 266.867188 309.800781 267.492188 308.296875 C 268.117188 306.789062 268.664062 305.253906 269.136719 303.691406 C 269.613281 302.128906 270.007812 300.550781 270.324219 298.949219 C 270.644531 297.347656 270.882812 295.734375 271.042969 294.113281 C 271.203125 292.488281 271.285156 290.859375 271.285156 289.226562 L 271.285156 256.011719 C 271.285156 255.46875 271.257812 254.925781 271.203125 254.386719 C 271.148438 253.84375 271.070312 253.304688 270.964844 252.773438 C 270.859375 252.238281 270.726562 251.710938 270.566406 251.191406 C 270.410156 250.671875 270.226562 250.160156 270.019531 249.65625 C 269.8125 249.15625 269.578125 248.664062 269.324219 248.183594 C 269.066406 247.703125 268.785156 247.238281 268.484375 246.785156 C 268.183594 246.332031 267.859375 245.898438 267.515625 245.476562 C 267.167969 245.054688 266.804688 244.652344 266.417969 244.269531 C 266.035156 243.882812 265.632812 243.519531 265.210938 243.175781 C 264.792969 242.828125 264.355469 242.507812 263.902344 242.203125 C 263.449219 241.902344 262.984375 241.621094 262.503906 241.367188 C 262.023438 241.109375 261.535156 240.878906 261.03125 240.667969 C 260.527344 240.460938 260.015625 240.277344 259.496094 240.121094 C 258.976562 239.960938 258.449219 239.832031 257.914062 239.722656 C 257.382812 239.617188 256.84375 239.539062 256.304688 239.484375 C 255.761719 239.429688 255.21875 239.40625 254.675781 239.40625 Z M 254.675781 239.40625 " fill-opacity="1" fill-rule="nonzero"/></g><g clip-path="url(#515c5c719c)"><path fill="#e32229" d="M 366.113281 177.789062 L 332.898438 144.574219 C 332.511719 144.1875 332.109375 143.820312 331.6875 143.476562 C 331.265625 143.128906 330.824219 142.804688 330.371094 142.5 C 329.917969 142.195312 329.449219 141.917969 328.96875 141.660156 C 328.488281 141.402344 327.992188 141.167969 327.488281 140.960938 C 326.984375 140.75 326.46875 140.566406 325.949219 140.40625 C 325.425781 140.25 324.894531 140.117188 324.359375 140.011719 C 323.824219 139.902344 323.285156 139.824219 322.742188 139.769531 C 322.199219 139.714844 321.652344 139.691406 321.105469 139.691406 C 320.5625 139.691406 320.015625 139.714844 319.472656 139.769531 C 318.929688 139.824219 318.390625 139.902344 317.855469 140.011719 C 317.316406 140.117188 316.789062 140.25 316.265625 140.40625 C 315.742188 140.566406 315.230469 140.75 314.726562 140.960938 C 314.222656 141.167969 313.726562 141.402344 313.246094 141.660156 C 312.765625 141.917969 312.296875 142.195312 311.84375 142.5 C 311.386719 142.804688 310.949219 143.128906 310.527344 143.476562 C 310.105469 143.820312 309.703125 144.1875 309.316406 144.574219 C 308.929688 144.960938 308.5625 145.363281 308.214844 145.785156 C 307.871094 146.207031 307.546875 146.648438 307.242188 147.101562 C 306.9375 147.554688 306.65625 148.023438 306.398438 148.503906 C 306.144531 148.988281 305.910156 149.480469 305.699219 149.984375 C 305.492188 150.488281 305.308594 151.003906 305.148438 151.523438 C 304.992188 152.046875 304.859375 152.578125 304.75 153.113281 C 304.644531 153.648438 304.566406 154.1875 304.511719 154.730469 C 304.457031 155.273438 304.429688 155.820312 304.429688 156.367188 C 304.429688 156.910156 304.457031 157.457031 304.511719 158 C 304.566406 158.542969 304.644531 159.082031 304.75 159.617188 C 304.859375 160.15625 304.992188 160.683594 305.148438 161.207031 C 305.308594 161.730469 305.492188 162.242188 305.699219 162.746094 C 305.910156 163.25 306.144531 163.746094 306.398438 164.226562 C 306.65625 164.707031 306.9375 165.175781 307.242188 165.628906 C 307.546875 166.085938 307.871094 166.523438 308.214844 166.945312 C 308.5625 167.367188 308.929688 167.769531 309.316406 168.15625 L 314.296875 172.972656 L 188.246094 172.972656 C 187.699219 172.972656 187.15625 173 186.617188 173.054688 C 186.074219 173.105469 185.539062 173.1875 185.003906 173.292969 C 184.472656 173.398438 183.945312 173.53125 183.421875 173.6875 C 182.902344 173.847656 182.390625 174.03125 181.886719 174.238281 C 181.386719 174.445312 180.894531 174.679688 180.414062 174.933594 C 179.9375 175.191406 179.46875 175.46875 179.015625 175.773438 C 178.566406 176.074219 178.128906 176.398438 177.707031 176.742188 C 177.289062 177.089844 176.886719 177.453125 176.5 177.835938 C 176.117188 178.222656 175.75 178.625 175.40625 179.046875 C 175.0625 179.464844 174.738281 179.902344 174.433594 180.355469 C 174.132812 180.808594 173.855469 181.273438 173.597656 181.753906 C 173.339844 182.230469 173.109375 182.722656 172.902344 183.226562 C 172.691406 183.726562 172.507812 184.238281 172.351562 184.761719 C 172.195312 185.28125 172.0625 185.808594 171.957031 186.339844 C 171.847656 186.875 171.769531 187.414062 171.714844 187.953125 C 171.664062 188.496094 171.636719 189.039062 171.636719 189.582031 C 171.636719 190.125 171.664062 190.667969 171.714844 191.210938 C 171.769531 191.75 171.847656 192.289062 171.957031 192.820312 C 172.0625 193.355469 172.195312 193.882812 172.351562 194.402344 C 172.507812 194.921875 172.691406 195.433594 172.902344 195.9375 C 173.109375 196.4375 173.339844 196.929688 173.597656 197.410156 C 173.855469 197.890625 174.132812 198.355469 174.433594 198.808594 C 174.738281 199.261719 175.0625 199.695312 175.40625 200.117188 C 175.75 200.539062 176.117188 200.941406 176.5 201.324219 C 176.886719 201.710938 177.289062 202.074219 177.707031 202.417969 C 178.128906 202.765625 178.566406 203.089844 179.015625 203.390625 C 179.46875 203.691406 179.9375 203.972656 180.414062 204.226562 C 180.894531 204.484375 181.386719 204.71875 181.886719 204.925781 C 182.390625 205.132812 182.902344 205.316406 183.421875 205.472656 C 183.945312 205.632812 184.472656 205.765625 185.003906 205.871094 C 185.539062 205.976562 186.074219 206.054688 186.617188 206.109375 C 187.15625 206.164062 187.699219 206.1875 188.246094 206.1875 L 314.296875 206.1875 L 309.316406 211.003906 C 308.925781 211.390625 308.558594 211.792969 308.210938 212.214844 C 307.863281 212.636719 307.535156 213.074219 307.230469 213.527344 C 306.925781 213.980469 306.644531 214.449219 306.382812 214.929688 C 306.125 215.414062 305.890625 215.90625 305.679688 216.410156 C 305.46875 216.914062 305.285156 217.429688 305.125 217.953125 C 304.964844 218.476562 304.832031 219.003906 304.726562 219.539062 C 304.617188 220.078125 304.539062 220.617188 304.484375 221.160156 C 304.429688 221.703125 304.402344 222.25 304.402344 222.796875 C 304.402344 223.34375 304.429688 223.890625 304.484375 224.433594 C 304.539062 224.976562 304.617188 225.519531 304.726562 226.054688 C 304.832031 226.589844 304.964844 227.121094 305.125 227.640625 C 305.285156 228.164062 305.46875 228.679688 305.679688 229.183594 C 305.890625 229.6875 306.125 230.183594 306.382812 230.664062 C 306.644531 231.144531 306.925781 231.613281 307.230469 232.066406 C 307.535156 232.519531 307.863281 232.957031 308.210938 233.378906 C 308.558594 233.800781 308.925781 234.203125 309.316406 234.589844 C 309.699219 234.976562 310.105469 235.34375 310.523438 235.695312 C 310.945312 236.042969 311.382812 236.367188 311.835938 236.675781 C 312.292969 236.980469 312.757812 237.261719 313.242188 237.519531 C 313.722656 237.777344 314.214844 238.015625 314.71875 238.222656 C 315.226562 238.433594 315.738281 238.621094 316.261719 238.777344 C 316.785156 238.9375 317.3125 239.070312 317.851562 239.179688 C 318.386719 239.285156 318.925781 239.367188 319.472656 239.421875 C 320.015625 239.472656 320.558594 239.5 321.105469 239.5 C 321.652344 239.5 322.199219 239.472656 322.742188 239.421875 C 323.289062 239.367188 323.828125 239.285156 324.363281 239.179688 C 324.898438 239.070312 325.429688 238.9375 325.953125 238.777344 C 326.476562 238.621094 326.988281 238.433594 327.492188 238.222656 C 328 238.015625 328.492188 237.777344 328.972656 237.519531 C 329.453125 237.261719 329.921875 236.980469 330.375 236.675781 C 330.828125 236.367188 331.269531 236.042969 331.6875 235.695312 C 332.109375 235.34375 332.511719 234.976562 332.898438 234.589844 L 366.113281 201.371094 C 366.503906 200.988281 366.871094 200.585938 367.21875 200.164062 C 367.566406 199.742188 367.894531 199.304688 368.199219 198.851562 C 368.503906 198.398438 368.785156 197.929688 369.046875 197.449219 C 369.304688 196.964844 369.539062 196.472656 369.75 195.96875 C 369.960938 195.464844 370.144531 194.949219 370.304688 194.425781 C 370.464844 193.902344 370.597656 193.375 370.703125 192.839844 C 370.8125 192.300781 370.890625 191.761719 370.945312 191.21875 C 371 190.671875 371.027344 190.128906 371.027344 189.582031 C 371.027344 189.035156 371 188.488281 370.945312 187.945312 C 370.890625 187.402344 370.8125 186.859375 370.703125 186.324219 C 370.597656 185.789062 370.464844 185.257812 370.304688 184.734375 C 370.144531 184.214844 369.960938 183.699219 369.75 183.195312 C 369.539062 182.691406 369.304688 182.195312 369.046875 181.714844 C 368.785156 181.234375 368.503906 180.765625 368.199219 180.3125 C 367.894531 179.859375 367.566406 179.421875 367.21875 179 C 366.871094 178.578125 366.503906 178.175781 366.113281 177.789062 Z M 366.113281 177.789062 " fill-opacity="1" fill-rule="nonzero"/></g></svg>